#N canvas 684 30 756 757 10;
#X obj 335 5 r addCircle;
#X obj 335 36 route \$1;
#X floatatom 288 178 5 0 0 0 - - -;
#X floatatom 103 473 5 0 0 0 - - -;
#X obj 35 719 circle 0.1;
#X obj 35 589 colorRGB 1 1 1 0.3;
#X obj 35 659 alpha;
#X obj 335 141 unpack f f f;
#X obj 130 47 r tgl-circle;
#X obj 130 90 tgl 15 0 empty empty empty 17 7 0 10 -262144 -1 -1 0
1;
#X msg 354 97 1;
#X obj 37 214 t a b;
#X obj 439 296 f;
#X obj 439 331 / 100;
#X obj 499 296 fmod 100;
#X obj 469 296 + 1;
#X obj 35 690 pix_texture;
#X obj 62 611 loadbang;
#X obj 62 635 tgl 15 0 empty empty empty 17 7 0 10 -262144 -1 -1 1
1;
#X obj 325 251 * 1.25;
#X floatatom 484 268 5 0 0 0 - - -;
#X obj 484 241 expr abs(10-($f1/4)*10)+1;
#X obj 160 6 loadbang;
#X msg 160 26 0;
#X obj 58 285 f;
#X obj 87 285 + 0.01;
#X obj 136 285 fmod 360;
#X obj 199 312 f;
#X floatatom 249 334 5 0 0 0 - - -;
#X obj 335 72 t a b b;
#X obj 392 98 s \$0-reset;
#X obj 152 226 r \$0-reset;
#X obj 249 256 + 0.01;
#X msg 152 249 0;
#X floatatom 58 309 5 0 0 0 - - -;
#X obj 249 287 moses 5;
#X obj 37 169 depth;
#X obj 58 361 expr ($f1/360)*2*3.1415926;
#X obj 54 403 expr cos($f1)*$f2;
#X obj 87 435 expr sin($f1)*$f2;
#X obj 343 300 r \$0-reset;
#X obj 343 334 randomF 4;
#X obj 343 360 + 1;
#X obj 33 508 translateXYZ 0 0 0;
#X obj 49 479 +;
#X floatatom 49 460 5 0 0 0 - - -;
#X obj 49 435 t b f;
#X obj 231 370 f;
#X floatatom 260 448 5 0 0 0 - - -;
#X obj 260 370 + 0.01;
#X obj 260 401 moses 5;
#X msg 305 427 3.82447;
#X msg 343 387 set \$1;
#X msg 294 313 10;
#X obj 57 558 unpack f f f;
#X obj 466 490 sel 0 1 2 3 4 5;
#X msg 524 605 0.38 0.26 1;
#X msg 538 514 0.46 1 0.49;
#X obj 58 382 t f f;
#X obj 58 334 t f f;
#X obj 187 643 / 180;
#X msg 271 682 send /circle-0 \$1 \$2 \$3 \$4;
#X obj 271 619 init \$1;
#X obj 271 725 s net;
#X obj 271 706 packOSC;
#X obj 271 598 bng 15 250 50 0 empty empty empty 17 7 0 10 -262144
-1 -1;
#X obj 187 669 v \$0-x;
#X obj 187 589 - 180;
#X obj 187 612 abs;
#X obj 187 693 pack f f f f;
#X msg 271 646 set send /circle-\$1 \, adddollar 1 \, adddollar 2 \,
adddollar 3 \, adddollar 4;
#X obj 38 240 t a b b b b;
#X obj 226 492 f;
#X obj 256 492 + 1;
#X obj 286 492 % 10;
#X obj 226 517 sel 0;
#X msg 466 518 1 0 0.466;
#X msg 480 541 1 0.7 0.07;
#X msg 495 560 0.66 0.91 0.13;
#X msg 508 581 0.01 0.85 0.89;
#X obj 466 464 random 6;
#X obj 37 142 spigot;
#X obj 37 84 r gemhead;
#X obj 37 115 separator;
#X floatatom 485 372 5 0 0 0 - - -;
#X obj 485 399 * 0.3;
#X connect 0 0 1 0;
#X connect 1 0 29 0;
#X connect 2 0 46 0;
#X connect 3 0 43 2;
#X connect 5 0 6 0;
#X connect 6 0 16 0;
#X connect 7 0 2 0;
#X connect 7 1 3 0;
#X connect 7 1 69 1;
#X connect 7 2 19 0;
#X connect 7 2 21 0;
#X connect 7 2 69 2;
#X connect 8 0 9 0;
#X connect 9 0 81 1;
#X connect 10 0 9 0;
#X connect 11 0 71 0;
#X connect 11 1 12 0;
#X connect 12 0 13 0;
#X connect 12 0 15 0;
#X connect 13 0 69 3;
#X connect 13 0 84 0;
#X connect 14 0 12 1;
#X connect 15 0 14 0;
#X connect 16 0 4 0;
#X connect 17 0 18 0;
#X connect 18 0 6 1;
#X connect 19 0 4 1;
#X connect 20 0 15 1;
#X connect 21 0 20 0;
#X connect 22 0 23 0;
#X connect 23 0 9 0;
#X connect 24 0 25 0;
#X connect 24 0 34 0;
#X connect 25 0 26 0;
#X connect 26 0 24 1;
#X connect 27 0 25 1;
#X connect 27 0 32 0;
#X connect 28 0 27 1;
#X connect 29 0 7 0;
#X connect 29 1 10 0;
#X connect 29 1 80 0;
#X connect 29 2 30 0;
#X connect 31 0 33 0;
#X connect 32 0 35 0;
#X connect 33 0 25 1;
#X connect 33 0 27 1;
#X connect 33 0 24 1;
#X connect 33 0 47 1;
#X connect 34 0 59 0;
#X connect 35 0 28 0;
#X connect 35 1 53 0;
#X connect 36 0 11 0;
#X connect 37 0 58 0;
#X connect 38 0 45 0;
#X connect 39 0 43 3;
#X connect 40 0 41 0;
#X connect 41 0 42 0;
#X connect 42 0 50 1;
#X connect 42 0 52 0;
#X connect 43 0 5 0;
#X connect 44 0 43 1;
#X connect 45 0 44 0;
#X connect 46 0 45 0;
#X connect 46 1 44 1;
#X connect 47 0 49 0;
#X connect 48 0 47 1;
#X connect 48 0 39 1;
#X connect 48 0 38 1;
#X connect 49 0 50 0;
#X connect 50 0 48 0;
#X connect 50 1 51 0;
#X connect 51 0 48 0;
#X connect 52 0 51 0;
#X connect 53 0 28 0;
#X connect 54 0 5 1;
#X connect 54 1 5 2;
#X connect 54 2 5 3;
#X connect 55 0 76 0;
#X connect 55 1 77 0;
#X connect 55 2 78 0;
#X connect 55 3 79 0;
#X connect 55 4 56 0;
#X connect 55 5 57 0;
#X connect 56 0 54 0;
#X connect 57 0 54 0;
#X connect 58 0 38 0;
#X connect 58 1 39 0;
#X connect 59 0 37 0;
#X connect 59 1 67 0;
#X connect 60 0 66 0;
#X connect 61 0 64 0;
#X connect 62 0 70 0;
#X connect 64 0 63 0;
#X connect 65 0 62 0;
#X connect 66 0 69 0;
#X connect 67 0 68 0;
#X connect 68 0 60 0;
#X connect 69 0 61 0;
#X connect 70 0 61 0;
#X connect 71 0 43 0;
#X connect 71 1 24 0;
#X connect 71 2 27 0;
#X connect 71 3 47 0;
#X connect 71 4 72 0;
#X connect 72 0 73 0;
#X connect 72 0 75 0;
#X connect 73 0 74 0;
#X connect 74 0 72 1;
#X connect 75 0 66 0;
#X connect 76 0 54 0;
#X connect 77 0 54 0;
#X connect 78 0 54 0;
#X connect 79 0 54 0;
#X connect 80 0 55 0;
#X connect 81 0 36 0;
#X connect 82 0 83 0;
#X connect 83 0 81 0;
#X connect 84 0 85 0;
#X connect 85 0 5 4;
