#N canvas 638 22 985 775 10;
#X obj 209 35 s line\$1;
#X obj 192 -11 route \$1;
#X obj 192 -41 r addline;
#X obj 192 57 unpack f f f f;
#X obj -37 186 gemhead;
#X obj -37 216 translateXYZ;
#X obj 400 -39 tgl 15 0 empty empty empty 17 7 0 10 -262144 -1 -1 1
1;
#X obj 400 -64 r allclose;
#X msg 308 -46 1;
#X obj 429 120 tgl 15 0 empty empty empty 17 7 0 10 -262144 -1 -1 1
1;
#X obj 427 141 metro 30;
#X obj 427 186 t b b b;
#N canvas 135 22 674 618 target1 0;
#X obj 436 333 translateXYZ 0 0 0;
#X obj 591 232 == 2;
#X obj 540 274 pack f f;
#X msg 540 297 \$2 \$1;
#X obj 436 275 *;
#X obj 463 431 circle 0.07;
#X obj 540 147 spigot;
#X obj 540 111 r mainline1;
#X obj 194 83 expr sqrt(pow(($f1-$f3) \, 2)+pow(($f2-$f4) \, 2));
#X obj 277 172 distance2d;
#X msg 334 149 \$1 \$2;
#X obj 277 219 /;
#X obj 334 125 r line\$1;
#X obj 194 55 r line\$1;
#X obj 197 218 mtof;
#X obj 197 158 int;
#X obj 277 275 *;
#X obj 92 337 pack f f;
#X obj 47 386 list 0 0;
#X msg 47 423 send /red0 \$1 \$2;
#X msg 92 360 \$2 \$1;
#X obj 158 368 init \$1;
#X msg 158 389 set send /red\$1 \, adddollar 1 \, adddollar 2 \,;
#X obj 47 453 outlet;
#X obj 480 46 inlet;
#X obj 47 323 inlet;
#X floatatom 436 245 5 0 0 0 - - -;
#X obj 436 212 t b f;
#X obj 345 292 line;
#X obj 322 214 t b f;
#X floatatom 277 249 5 0 0 0 - - -;
#X obj 480 78 t f f;
#X obj 436 307 gemhead 2000;
#X obj 436 567 circle 0.07;
#X obj 436 360 t a a;
#X msg 445 533 draw line;
#X obj 445 510 loadbang;
#X obj 463 407 color 1 0 0 0.7;
#X obj 436 485 color 1 1 1;
#X obj 436 458 separator;
#X obj 463 383 separator;
#X obj 381 212 loadbang;
#X msg 381 236 0;
#X msg 345 268 \$1 60;
#X obj 540 183 intersect;
#X floatatom 345 315 5 0 0 0 - - -;
#X obj 97 270 inlet;
#X obj 116 126 moses 8;
#X msg 155 148 8;
#X floatatom 116 168 5 0 0 0 - - -;
#X obj 197 131 expr 84-(($f1/8)*36);
#X floatatom 197 194 5 0 0 0 - - -;
#X connect 0 0 34 0;
#X connect 1 0 27 0;
#X connect 2 0 3 0;
#X connect 3 0 9 0;
#X connect 4 0 43 0;
#X connect 4 0 32 0;
#X connect 6 0 44 0;
#X connect 7 0 6 0;
#X connect 8 0 11 1;
#X connect 8 0 47 0;
#X connect 9 0 11 0;
#X connect 10 0 9 1;
#X connect 11 0 30 0;
#X connect 12 0 10 0;
#X connect 13 0 8 0;
#X connect 13 0 44 1;
#X connect 14 0 17 1;
#X connect 15 0 51 0;
#X connect 16 0 17 0;
#X connect 17 0 20 0;
#X connect 18 0 19 0;
#X connect 19 0 23 0;
#X connect 20 0 18 1;
#X connect 21 0 22 0;
#X connect 22 0 19 0;
#X connect 24 0 31 0;
#X connect 25 0 18 0;
#X connect 26 0 4 0;
#X connect 27 0 26 0;
#X connect 27 1 4 1;
#X connect 28 0 45 0;
#X connect 29 0 30 0;
#X connect 29 1 16 1;
#X connect 30 0 16 0;
#X connect 31 0 26 0;
#X connect 31 1 6 1;
#X connect 32 0 0 0;
#X connect 34 0 39 0;
#X connect 34 1 40 0;
#X connect 35 0 33 0;
#X connect 36 0 35 0;
#X connect 37 0 5 0;
#X connect 38 0 33 0;
#X connect 39 0 38 0;
#X connect 40 0 37 0;
#X connect 41 0 42 0;
#X connect 42 0 32 0;
#X connect 43 0 28 0;
#X connect 44 0 2 0;
#X connect 44 0 0 2;
#X connect 44 1 2 1;
#X connect 44 1 0 1;
#X connect 44 2 1 0;
#X connect 45 0 29 0;
#X connect 46 0 19 0;
#X connect 47 0 49 0;
#X connect 47 1 48 0;
#X connect 48 0 49 0;
#X connect 49 0 50 0;
#X connect 50 0 15 0;
#X connect 51 0 14 0;
#X restore 427 258 pd target1;
#N canvas 635 165 805 524 target1 0;
#X obj 437 334 translateXYZ 0 0 0;
#X obj 591 232 == 2;
#X obj 540 274 pack f f;
#X msg 540 297 \$2 \$1;
#X obj 436 275 *;
#X obj 540 147 spigot;
#X obj 194 83 expr sqrt(pow(($f1-$f3) \, 2)+pow(($f2-$f4) \, 2));
#X obj 268 219 distance2d;
#X obj 268 248 /;
#X obj 325 172 r line\$1;
#X obj 194 55 r line\$1;
#X obj 194 215 mtof;
#X obj 194 155 int;
#X obj 268 322 *;
#X obj 81 348 pack f f;
#X obj 36 397 list 0 0;
#X msg 36 434 send /green0 \$1 \$2;
#X msg 81 371 \$2 \$1;
#X obj 147 379 init \$1;
#X obj 36 464 outlet;
#X obj 480 46 inlet;
#X obj 36 334 inlet;
#X floatatom 436 245 5 0 0 0 - - -;
#X obj 436 212 t b f;
#X obj 356 350 line;
#X obj 308 294 t b f;
#X floatatom 268 296 5 0 0 0 - - -;
#X obj 480 78 t f f;
#X msg 147 400 set send /green\$1 \, adddollar 1 \, adddollar 2 \,
;
#X obj 540 111 r mainline2;
#X obj 436 307 gemhead 2000;
#X obj 440 480 circle 0.07;
#X obj 528 484 circle 0.07;
#X obj 443 370 t a a;
#X msg 548 450 draw line;
#X obj 551 421 loadbang;
#X obj 519 398 color 1 1 1;
#X obj 519 378 separator;
#X obj 418 420 separator;
#X obj 416 440 color 0 1 0 0.7;
#X obj 381 270 loadbang;
#X msg 381 294 0;
#X msg 356 326 \$1 60;
#X obj 540 183 intersect;
#X obj 99 268 inlet;
#X obj 126 136 moses 8;
#X msg 165 158 8;
#X floatatom 126 178 5 0 0 0 - - -;
#X msg 325 196 \$1 \$2;
#X floatatom 194 190 5 0 0 0 - - -;
#X obj 194 129 expr ($f1/8)*48+48;
#X connect 0 0 33 0;
#X connect 1 0 23 0;
#X connect 2 0 3 0;
#X connect 3 0 7 0;
#X connect 4 0 42 0;
#X connect 4 0 30 0;
#X connect 5 0 43 0;
#X connect 6 0 8 1;
#X connect 6 0 45 0;
#X connect 7 0 8 0;
#X connect 8 0 26 0;
#X connect 9 0 48 0;
#X connect 10 0 6 0;
#X connect 10 0 43 1;
#X connect 11 0 14 1;
#X connect 12 0 49 0;
#X connect 13 0 14 0;
#X connect 14 0 17 0;
#X connect 15 0 16 0;
#X connect 16 0 19 0;
#X connect 17 0 15 1;
#X connect 18 0 28 0;
#X connect 20 0 27 0;
#X connect 21 0 15 0;
#X connect 22 0 4 0;
#X connect 23 0 22 0;
#X connect 23 1 4 1;
#X connect 24 0 25 0;
#X connect 25 0 26 0;
#X connect 25 1 13 1;
#X connect 26 0 13 0;
#X connect 27 0 22 0;
#X connect 27 1 5 1;
#X connect 28 0 16 0;
#X connect 29 0 5 0;
#X connect 30 0 0 0;
#X connect 33 0 37 0;
#X connect 33 1 38 0;
#X connect 34 0 32 0;
#X connect 35 0 34 0;
#X connect 36 0 32 0;
#X connect 37 0 36 0;
#X connect 38 0 39 0;
#X connect 39 0 31 0;
#X connect 40 0 41 0;
#X connect 41 0 30 0;
#X connect 42 0 24 0;
#X connect 43 0 2 0;
#X connect 43 0 0 2;
#X connect 43 1 2 1;
#X connect 43 1 0 1;
#X connect 43 2 1 0;
#X connect 44 0 16 0;
#X connect 45 0 47 0;
#X connect 45 1 46 0;
#X connect 46 0 47 0;
#X connect 47 0 50 0;
#X connect 48 0 7 1;
#X connect 49 0 11 0;
#X connect 50 0 12 0;
#X restore 446 283 pd target1;
#N canvas 97 138 805 524 target1 0;
#X obj 437 345 translateXYZ 0 0 0;
#X obj 591 232 == 2;
#X obj 540 274 pack f f;
#X msg 540 297 \$2 \$1;
#X obj 436 275 *;
#X obj 540 147 spigot;
#X obj 194 83 expr sqrt(pow(($f1-$f3) \, 2)+pow(($f2-$f4) \, 2));
#X obj 268 219 distance2d;
#X msg 325 196 \$1 \$2;
#X obj 268 266 /;
#X obj 325 172 r line\$1;
#X obj 194 55 r line\$1;
#X obj 194 184 mtof;
#X obj 194 155 int;
#X obj 268 322 *;
#X obj 94 336 pack f f;
#X obj 49 385 list 0 0;
#X msg 49 422 send /blue0 \$1 \$2;
#X msg 94 359 \$2 \$1;
#X obj 160 367 init \$1;
#X obj 49 452 outlet;
#X obj 480 46 inlet;
#X obj 49 322 inlet;
#X floatatom 436 245 5 0 0 0 - - -;
#X obj 436 212 t b f;
#X obj 356 350 line;
#X obj 308 294 t b f;
#X floatatom 268 296 5 0 0 0 - - -;
#X obj 480 78 t f f;
#X msg 160 388 set send /blue\$1 \, adddollar 1 \, adddollar 2 \,;
#X obj 540 111 r mainline3;
#X obj 436 307 gemhead 2000;
#X obj 429 481 circle 0.07;
#X obj 538 494 circle 0.07;
#X obj 436 368 t a a;
#X msg 558 460 draw line;
#X obj 561 431 loadbang;
#X obj 529 408 color 1 1 1;
#X obj 529 388 separator;
#X obj 428 430 separator;
#X obj 428 457 color 0 0 1;
#X obj 377 270 loadbang;
#X msg 377 294 0;
#X msg 356 326 \$1 60;
#X obj 540 183 intersect;
#X obj 112 251 inlet;
#X obj 116 107 moses 8;
#X msg 155 129 8;
#X floatatom 116 149 5 0 0 0 - - -;
#X obj 194 126 expr 108-(($f1/8)*48);
#X floatatom 257 158 5 0 0 0 - - -;
#X connect 0 0 34 0;
#X connect 1 0 24 0;
#X connect 2 0 3 0;
#X connect 3 0 7 0;
#X connect 4 0 43 0;
#X connect 4 0 31 0;
#X connect 5 0 44 0;
#X connect 6 0 9 1;
#X connect 6 0 46 0;
#X connect 7 0 9 0;
#X connect 8 0 7 1;
#X connect 9 0 27 0;
#X connect 10 0 8 0;
#X connect 11 0 6 0;
#X connect 11 0 44 1;
#X connect 12 0 15 1;
#X connect 13 0 12 0;
#X connect 14 0 15 0;
#X connect 15 0 18 0;
#X connect 16 0 17 0;
#X connect 17 0 20 0;
#X connect 18 0 16 1;
#X connect 19 0 29 0;
#X connect 21 0 28 0;
#X connect 22 0 16 0;
#X connect 23 0 4 0;
#X connect 24 0 23 0;
#X connect 24 1 4 1;
#X connect 25 0 26 0;
#X connect 26 0 27 0;
#X connect 26 1 14 1;
#X connect 27 0 14 0;
#X connect 28 0 23 0;
#X connect 28 1 5 1;
#X connect 29 0 17 0;
#X connect 30 0 5 0;
#X connect 31 0 0 0;
#X connect 34 0 38 0;
#X connect 34 1 39 0;
#X connect 35 0 33 0;
#X connect 36 0 35 0;
#X connect 37 0 33 0;
#X connect 38 0 37 0;
#X connect 39 0 40 0;
#X connect 40 0 32 0;
#X connect 41 0 42 0;
#X connect 42 0 31 0;
#X connect 43 0 25 0;
#X connect 44 0 2 0;
#X connect 44 0 0 2;
#X connect 44 1 2 1;
#X connect 44 1 0 1;
#X connect 44 2 1 0;
#X connect 45 0 17 0;
#X connect 46 0 48 0;
#X connect 46 1 47 0;
#X connect 47 0 48 0;
#X connect 48 0 49 0;
#X connect 49 0 13 0;
#X connect 49 0 50 0;
#X restore 467 310 pd target1;
#X obj 427 365 s net;
#X obj 427 336 packOSC;
#X obj 429 46 sel 0;
#X obj 429 69 del 45;
#X obj 546 188 t b b b;
#X obj 486 221 expr $f1*display1;
#X obj 503 254 expr $f1*display2;
#X obj 524 282 expr $f1*display3;
#X obj -37 301 colorRGB 1 1 1 0.5;
#X obj -37 273 separator;
#X obj 546 109 gemhead;
#X obj -37 239 t a a a;
#X obj 60 346 separator;
#X obj 60 568 curve 2;
#X obj -89 494 loadbang;
#X obj 60 504 t a b;
#X msg 79 538 0 0 0;
#N canvas 886 432 432 293 angle 0;
#X obj 45 75 expr $f1-$f2;
#X obj 264 75 expr $f1-$f2;
#X obj 45 153 outlet;
#X obj 45 -3 inlet;
#X obj 45 43 unpack f f f f;
#X obj 45 102 expr atan2($f1 \, $f2)*-1*180/3.1415926;
#X msg 45 19 \$3 \$4 \$1 \$2;
#X connect 0 0 5 0;
#X connect 1 0 5 1;
#X connect 3 0 6 0;
#X connect 4 0 0 0;
#X connect 4 1 1 0;
#X connect 4 2 0 1;
#X connect 4 3 1 1;
#X connect 5 0 2 0;
#X connect 6 0 4 0;
#X restore 222 261 pd angle;
#X obj 60 370 rotateXYZ 0 0 0;
#X obj 192 11 t a a b a;
#X obj 265 287 r \$0-r;
#X obj 285 179 r \$0-x;
#X obj 361 184 r \$0-y;
#X obj -154 31 expr $f1-$f2;
#X obj 65 29 expr $f1-$f2;
#X obj -154 -13 v mouseX;
#X obj 65 -17 v mouseY;
#X obj -154 -62 unpack f f;
#X obj -154 -138 r boid_pos;
#X obj -154 -88 route \$1;
#X obj -64 17 s \$0-x;
#X obj -154 -37 t b f f;
#X obj 65 -42 t b f f;
#X obj 147 28 s \$0-y;
#X obj -154 84 s \$0-r;
#X obj -154 58 expr atan2($f1 \, $f2)*-1*180/3.1415926;
#X obj 185 514 pack 0 0 0;
#X msg 185 534 \$2 \$1 \$3;
#X obj 222 285 + 180;
#X obj 312 258 line;
#X msg 312 230 \$1 0;
#X obj 347 259 line;
#X msg 347 233 \$1 0;
#X msg 285 202 \$1 500;
#X msg 361 210 \$1 500;
#X obj 222 336 line;
#X msg 222 310 \$1 0;
#X msg 265 309 \$1 500;
#N canvas 822 290 410 413 translat_new 0;
#X obj 245 -10 inlet;
#X obj 298 -11 inlet;
#X obj 168 244 pack f f f f;
#X obj 245 20 t f f;
#X obj 298 21 t f f;
#X obj 72 135 +;
#X obj 140 142 +;
#X obj 56 -38 inlet r;
#X obj 173 -13 inlet dis;
#X obj 141 92 cos;
#X obj 72 86 sin;
#X obj 72 111 *;
#X obj 140 114 *;
#X obj 56 40 expr ($f1/360)*2*3.1415926;
#X obj 56 -5 expr 360-$f1;
#X obj 168 268 s line\$1;
#X connect 0 0 3 0;
#X connect 1 0 4 0;
#X connect 2 0 15 0;
#X connect 3 0 5 1;
#X connect 3 1 2 2;
#X connect 4 0 6 1;
#X connect 4 1 2 3;
#X connect 5 0 2 0;
#X connect 6 0 2 1;
#X connect 7 0 14 0;
#X connect 8 0 11 1;
#X connect 8 0 12 1;
#X connect 9 0 12 0;
#X connect 10 0 11 0;
#X connect 11 0 5 0;
#X connect 12 0 6 0;
#X connect 13 0 10 0;
#X connect 13 0 9 0;
#X connect 14 0 13 0;
#X restore 260 336 pd translat_new;
#X msg 506 408 send /pos0 \$1 \$2;
#X msg 506 382 set send /pos\$1 \, adddollar 1 \, adddollar 2 \,;
#X obj 425 432 pack f f;
#X obj 506 355 init \$1;
#X obj 45 189 sel 0 1;
#X msg 45 212 1 1 1;
#X msg 60 234 1 1 0;
#X obj 52 261 unpack f f f;
#X obj -37 366 alpha;
#X obj -93 314 loadbang;
#X msg -94 342 auto 1;
#X obj -10 346 tgl 15 0 empty empty empty 17 7 0 10 -262144 -1 -1 1
1;
#X obj 400 -9 t f f f f f f f;
#X obj 185 466 distance2d;
#X obj 185 436 pack f f;
#X obj 255 437 pack f f;
#X floatatom 596 109 5 0 0 0 - - -;
#X obj 596 134 > 0.1;
#X obj 546 156 spigot;
#X obj 582 0 distance2d;
#X obj 582 -47 r mouse_pos;
#X obj 639 -26 pack f f;
#X floatatom 582 22 5 0 0 0 - - -;
#X obj 582 45 < 0.05;
#X obj 549 -149 sel 1;
#X msg 549 -125 0;
#X obj 549 67 spigot;
#X obj 549 -174 r mouse_right;
#X obj 335 58 sel 0;
#X obj 596 157 tgl 15 0 empty empty empty 17 7 0 10 -262144 -1 -1 1
1;
#X msg 429 97 0;
#X msg 335 103 0 0;
#X obj 335 81 del 55;
#X obj 308 -23 t f f;
#X obj 582 -131 r hid;
#X obj 549 -82 spigot;
#X obj 582 -107 route key_29;
#X obj -154 -112 spigot;
#X obj -3 -171 sel 1;
#X obj 30 -153 r hid;
#X obj -3 -104 spigot;
#X obj 30 -129 route key_29;
#X obj -3 -196 r mouse_center;
#X obj -3 -77 spigot;
#X obj 45 105 tgl 15 0 empty empty empty 17 7 0 10 -262144 -1 -1 0
1;
#X obj 45 83 r auto-boids;
#X msg -3 -137 1;
#X obj 46 129 expr if($f1+$f2==2 \, 1 \, 0);
#X obj 44 154 tgl 15 0 empty empty empty 17 7 0 10 -262144 -1 -1 0
1;
#X msg 219 389 3;
#X msg 254 392 4;
#X obj 60 400 GEMglPointSize 3;
#X obj 60 442 colorRGB 1 1 1 0.6;
#X msg -89 526 draw point \, res 30;
#X obj 427 164 del \$1;
#X obj 663 130 init \$1;
#X obj 662 156 / 2;
#X obj 58 478 alpha;
#X obj -37 391 circle 0.06;
#X connect 1 0 34 0;
#X connect 2 0 1 0;
#X connect 3 0 78 0;
#X connect 3 1 78 1;
#X connect 3 2 55 0;
#X connect 3 2 79 0;
#X connect 3 3 57 0;
#X connect 3 3 79 1;
#X connect 4 0 5 0;
#X connect 5 0 26 0;
#X connect 6 0 76 0;
#X connect 6 0 111 1;
#X connect 7 0 6 0;
#X connect 8 0 97 0;
#X connect 9 0 10 0;
#X connect 10 0 118 0;
#X connect 11 0 12 0;
#X connect 11 1 13 0;
#X connect 11 2 14 0;
#X connect 12 0 16 0;
#X connect 13 0 16 0;
#X connect 14 0 16 0;
#X connect 16 0 15 0;
#X connect 17 0 18 0;
#X connect 18 0 94 0;
#X connect 19 0 20 0;
#X connect 19 1 21 0;
#X connect 19 2 22 0;
#X connect 20 0 12 2;
#X connect 21 0 13 2;
#X connect 22 0 14 2;
#X connect 23 0 72 0;
#X connect 24 0 23 0;
#X connect 25 0 82 0;
#X connect 26 0 24 0;
#X connect 26 2 27 0;
#X connect 27 0 33 0;
#X connect 29 0 117 0;
#X connect 30 0 28 0;
#X connect 30 1 31 0;
#X connect 31 0 28 1;
#X connect 32 0 53 0;
#X connect 33 0 115 0;
#X connect 34 0 3 0;
#X connect 34 1 0 0;
#X connect 34 2 8 0;
#X connect 34 3 32 0;
#X connect 35 0 62 0;
#X connect 36 0 58 0;
#X connect 37 0 59 0;
#X connect 38 0 50 0;
#X connect 39 0 50 1;
#X connect 40 0 38 0;
#X connect 41 0 39 0;
#X connect 42 0 46 0;
#X connect 42 1 47 0;
#X connect 43 0 101 0;
#X connect 44 0 42 0;
#X connect 46 0 40 0;
#X connect 46 1 38 1;
#X connect 46 2 45 0;
#X connect 47 0 41 0;
#X connect 47 1 39 1;
#X connect 47 2 48 0;
#X connect 50 0 49 0;
#X connect 51 0 52 0;
#X connect 52 0 28 2;
#X connect 53 0 61 0;
#X connect 54 0 5 1;
#X connect 54 0 63 2;
#X connect 54 0 66 0;
#X connect 54 0 85 0;
#X connect 55 0 54 0;
#X connect 56 0 5 2;
#X connect 56 0 63 3;
#X connect 56 0 66 1;
#X connect 56 0 85 1;
#X connect 57 0 56 0;
#X connect 58 0 54 0;
#X connect 59 0 56 0;
#X connect 60 0 63 0;
#X connect 60 0 33 3;
#X connect 61 0 60 0;
#X connect 62 0 60 0;
#X connect 64 0 16 0;
#X connect 65 0 64 0;
#X connect 66 0 64 0;
#X connect 67 0 65 0;
#X connect 68 0 69 0;
#X connect 68 0 113 0;
#X connect 68 1 70 0;
#X connect 68 1 114 0;
#X connect 69 0 71 0;
#X connect 70 0 71 0;
#X connect 71 0 23 1;
#X connect 71 0 116 1;
#X connect 71 1 23 2;
#X connect 71 1 116 2;
#X connect 71 2 23 3;
#X connect 71 2 116 3;
#X connect 72 0 122 0;
#X connect 73 0 74 0;
#X connect 73 0 75 0;
#X connect 74 0 72 0;
#X connect 75 0 72 1;
#X connect 75 0 121 1;
#X connect 76 0 92 0;
#X connect 76 1 4 0;
#X connect 76 2 17 0;
#X connect 76 3 20 0;
#X connect 76 4 21 0;
#X connect 76 5 22 0;
#X connect 76 6 25 0;
#X connect 77 0 51 0;
#X connect 77 0 63 1;
#X connect 77 0 80 0;
#X connect 78 0 77 0;
#X connect 79 0 77 1;
#X connect 80 0 81 0;
#X connect 81 0 93 0;
#X connect 82 0 19 0;
#X connect 83 0 86 0;
#X connect 84 0 83 0;
#X connect 85 0 83 1;
#X connect 86 0 87 0;
#X connect 87 0 90 1;
#X connect 87 0 107 1;
#X connect 88 0 89 0;
#X connect 89 0 99 0;
#X connect 90 0 6 0;
#X connect 91 0 88 0;
#X connect 92 0 96 0;
#X connect 93 0 82 1;
#X connect 94 0 9 0;
#X connect 95 0 12 1;
#X connect 95 0 13 1;
#X connect 95 0 14 1;
#X connect 96 0 95 0;
#X connect 97 0 9 0;
#X connect 97 1 6 0;
#X connect 98 0 100 0;
#X connect 99 0 90 0;
#X connect 100 0 99 1;
#X connect 101 0 44 0;
#X connect 102 0 110 0;
#X connect 103 0 105 0;
#X connect 104 0 107 0;
#X connect 105 0 104 1;
#X connect 106 0 102 0;
#X connect 107 0 112 0;
#X connect 108 0 111 0;
#X connect 109 0 108 0;
#X connect 110 0 104 0;
#X connect 111 0 112 0;
#X connect 112 0 68 0;
#X connect 112 0 101 1;
#X connect 113 0 115 1;
#X connect 114 0 115 1;
#X connect 115 0 116 0;
#X connect 116 0 121 0;
#X connect 117 0 28 0;
#X connect 118 0 11 0;
#X connect 119 0 120 0;
#X connect 120 0 118 1;
#X connect 121 0 30 0;
