#N canvas 211 124 264 243 12;
#X text 8 14 （z）畫-碰撞線;
#X text 8 32 （x）畫-變形曲線;
#X text 8 49 （c）畫-參考圓;
#X text 8 66 （v）畫-星球圓;
#X text 8 83 （b）畫-多邊形;
#X text 8 118 （m）隨機運動-變形曲線;
#X text 8 100 （l）畫-參考直線;
#X text 23 148 （<）運動-碰撞線;
#X text 28 176 （>）靜止-碰撞線;
