#N canvas 303 50 1137 775 10;
#X obj -131 13 + 1;
#X obj 166 158 hsl 50 15 0 1 0 0 empty empty Dir 10 7 0 10 -228856
-1 -1 775 1;
#X obj -304 212 pack f f;
#X obj 105 179 hsl 50 15 5 100 0 0 empty empty Area 10 7 0 10 -262144
-1 -1 4900 1;
#X obj 105 160 hsl 50 15 0 1 0 0 empty empty Speed 10 7 0 10 -262144
-1 -1 245 1;
#X obj 106 122 tgl 30 0 empty empty empty 17 7 0 10 -258699 -1 -262144
1 1;
#X floatatom 252 355 4 -7 7 0 x - -;
#X floatatom 331 357 4 -4 4 0 y - -;
#X obj -292 304 pack f f;
#X obj -101 13 fmod 100;
#X obj 181 59 f;
#X obj 265 59 fmod 1;
#X obj -162 72 expr $f1*2*3.1415926;
#X obj 252 429 v x_\$0;
#X obj 331 428 v y_\$0;
#X obj -162 142 expr cos($f1)*$f2+$f3;
#X obj -147 179 expr sin($f1)*$f2+$f3;
#X obj -162 99 t f f b b b;
#X obj -44 117 v x_\$0;
#X obj -17 143 v y_\$0;
#X msg 106 82 0;
#X obj 48 365 randomF 1.5;
#X obj -162 46 expr fmod(($f1/100)+$f2 \, 1);
#X floatatom 331 407 5 0 0 0 - - -;
#X floatatom 252 404 5 0 0 0 - - -;
#X obj -95 -37 t f f f;
#X obj -292 267 v x_\$0;
#X obj -247 267 v y_\$0;
#X obj 166 178 hsl 50 15 0 0.01 0 0 empty empty Rspped 10 7 0 10 -228856
-1 -1 49 1;
#X obj 292 156 r mouseMove;
#X obj 292 207 route \$1;
#X obj 292 232 unpack f f;
#X msg 292 180 \$3 \$1 \$2;
#X obj 106 50 loadbang;
#X obj 252 379 k_spring 1;
#X obj 48 388 + 1;
#N canvas 972 22 468 521 speed 0;
#X obj 105 77 t f f;
#X obj 105 105 -;
#X obj 114 256 f;
#X obj 114 226 t b f;
#X floatatom 114 345 5 0 0 0 - - -;
#X obj 160 -75 t f f;
#X obj 161 -26 -;
#X obj 184 99 t b f;
#X obj 149 256 + 0;
#X obj 105 28 inlet x;
#X obj 154 -98 inlet y;
#X obj 114 406 outlet speed;
#X obj 212 304 moses 1;
#X msg 251 329 1;
#X obj 103 150 sel 0;
#X obj 161 17 sel 0;
#X obj 31 226 loadbang;
#X obj 149 282 moses 0;
#X msg 149 302 0;
#X msg 29 257 0.01;
#X floatatom 126 185 5 0 0 0 - - -;
#X floatatom 193 58 5 0 0 0 - - -;
#X obj 104 126 expr if(abs($f1)>0.1 \, 0.01 \, 0);
#X obj 161 -2 expr if(abs($f1)>0.1 \, -0.01 \, 0);
#X obj 114 370 expr int($f1*100)/100;
#X connect 0 0 1 1;
#X connect 0 1 1 0;
#X connect 1 0 22 0;
#X connect 2 0 4 0;
#X connect 2 0 8 0;
#X connect 3 0 2 0;
#X connect 3 1 8 1;
#X connect 4 0 24 0;
#X connect 5 0 6 1;
#X connect 5 1 6 0;
#X connect 6 0 23 0;
#X connect 7 0 2 0;
#X connect 7 1 8 1;
#X connect 8 0 17 0;
#X connect 9 0 0 0;
#X connect 10 0 5 0;
#X connect 12 0 2 1;
#X connect 12 1 13 0;
#X connect 13 0 4 0;
#X connect 14 1 20 0;
#X connect 15 1 21 0;
#X connect 16 0 19 0;
#X connect 17 0 18 0;
#X connect 17 1 12 0;
#X connect 18 0 4 0;
#X connect 19 0 2 0;
#X connect 20 0 3 0;
#X connect 21 0 7 0;
#X connect 22 0 14 0;
#X connect 23 0 15 0;
#X connect 24 0 11 0;
#X restore 517 481 pd speed;
#X obj 517 508 s \$0-speed;
#X obj 33 157 r \$0-speed;
#X obj 5 180 r \$0-area;
#X obj -189 -12 t b b;
#X obj -189 120 s \$0-bang;
#X obj 181 -2 r \$0-bang;
#X obj 181 29 spigot;
#X obj 251 0 t f f;
#X obj 278 21 > 0;
#X obj 33 136 s \$0-start;
#X obj 20 277 r \$0-start;
#X obj -189 -60 r \$0-start;
#X obj 105 198 hsl 50 15 0.1 14 0 0 empty empty Size 10 7 0 10 -262144
-1 -1 557 1;
#X obj 20 299 sel 0 1;
#X msg 20 352 0;
#X obj 48 339 bng 15 250 50 0 empty empty empty 17 7 0 10 -262144 -1
-1;
#X obj 20 329 bng 15 250 50 0 empty empty empty 17 7 0 10 -262144 -1
-1;
#N canvas 765 369 427 388 defult 0;
#X msg 352 101 0.05;
#X obj 76 32 t b b b b b;
#X obj 76 -14 sel 1;
#X obj 149 136 v display\$1;
#X obj 353 124 s \$0-speed;
#X obj 76 -36 r \$0-start;
#X obj 149 113 r \$0-start;
#X obj 76 99 s \$0-dir;
#X obj 76 67 randomF 1;
#X msg 291 102 100;
#X obj 291 127 s \$0-area;
#X obj 291 75 loadbang;
#X connect 0 0 4 0;
#X connect 1 0 8 0;
#X connect 2 0 1 0;
#X connect 5 0 2 0;
#X connect 6 0 3 0;
#X connect 8 0 7 0;
#X connect 9 0 10 0;
#X connect 11 0 9 0;
#X connect 11 0 0 0;
#X restore 101 266 pd defult;
#X obj 61 27 s net;
#X obj 256 -251 init \$1;
#X obj 61 -34 packOSC;
#X msg 61 -59 send /env1 \$1 \$2 \$3 \$4 \$5;
#X obj 102 220 k_smooth 1;
#X obj 331 381 k_spring 1;
#X obj -95 -83 k_spring 3;
#X obj 407 199 random 5;
#X obj 406 169 loadbang;
#X obj 407 223 + 5;
#N canvas 642 61 478 700 rectangle 0;
#X obj -239 124 gemhead;
#X obj -259 452 translateXYZ;
#X obj -119 72 init \$1;
#X obj -184 143 unpack f f f;
#X obj -119 94 sel 1 2 3;
#X msg -119 119 1 0 0;
#X msg -102 147 0 1 0;
#X msg -85 174 0 0 1;
#X obj -239 171 colorRGB 1 0 0 0.4;
#X obj -193 7 inlet;
#X msg -166 55 1 1 1;
#X obj -283 -53 r \$0-start;
#X obj -283 -30 sel 0 1;
#X msg -264 -5 1;
#X msg -283 39 0;
#X obj -283 16 del 500;
#X obj -221 289 expr $f1*2*3.1415926;
#X obj -221 316 t f f b b b;
#X obj -141 376 v x_\$0;
#X obj -115 340 v y_\$0;
#X obj -263 212 t a b;
#X obj -221 239 expr fmod(($f1/100)+$f2 \, 1);
#X obj -62 204 inlet;
#X obj -200 -79 r \$0-area1;
#X obj -200 -31 tgl 15 0 empty empty empty 17 7 0 10 -262144 -1 -1
1 1;
#X obj -200 -54 == 100;
#X floatatom -252 67 5 0 0 0 - - -;
#X obj -238 39 t b f;
#X obj -252 88 *;
#X obj -259 544 scale 1;
#X obj -259 496 t a b;
#X obj -207 519 / 8;
#X obj -207 545 * 0.4;
#X obj -259 475 rotateXYZ;
#X floatatom -178 451 5 0 0 0 - - -;
#X obj -178 473 * 360;
#X obj -221 262 t f f;
#X msg -221 212 0;
#X obj -239 403 expr cos($f1)*$f2+$f3;
#X obj -213 423 expr sin($f1)*$f2+$f3;
#X obj -259 571 rectangle 0.6 0.1;
#X obj -193 82 delay 200;
#X obj -54 383 line;
#X floatatom -54 436 5 0 0 0 - - -;
#X msg -54 357 1 \, 0 200;
#X obj -54 458 * 2;
#X obj -54 483 + 0.6;
#X obj -193 32 t b b b;
#X obj -54 408 inoutbounce;
#X obj -15 483 + 0.1;
#X obj -15 458 * 0.1;
#X obj -187 358 v r_\$1;
#X obj -207 495 v r_\$1;
#X obj -262 191 alpha;
#X obj -222 191 tgl 15 0 empty empty empty 17 7 0 10 -262144 -1 -1
1 1;
#X obj -188 201 loadbang;
#X connect 0 0 8 0;
#X connect 1 0 33 0;
#X connect 2 0 4 0;
#X connect 3 0 8 1;
#X connect 3 1 8 2;
#X connect 3 2 8 3;
#X connect 4 0 5 0;
#X connect 4 1 6 0;
#X connect 4 2 7 0;
#X connect 5 0 3 0;
#X connect 6 0 3 0;
#X connect 7 0 3 0;
#X connect 8 0 53 0;
#X connect 9 0 47 0;
#X connect 10 0 3 0;
#X connect 11 0 12 0;
#X connect 12 0 15 0;
#X connect 12 1 13 0;
#X connect 13 0 26 0;
#X connect 14 0 26 0;
#X connect 15 0 14 0;
#X connect 16 0 17 0;
#X connect 17 0 38 0;
#X connect 17 1 39 0;
#X connect 17 2 18 0;
#X connect 17 3 19 0;
#X connect 17 4 51 0;
#X connect 18 0 38 2;
#X connect 19 0 39 2;
#X connect 20 0 1 0;
#X connect 20 1 37 0;
#X connect 21 0 36 0;
#X connect 22 0 21 1;
#X connect 23 0 25 0;
#X connect 24 0 27 0;
#X connect 25 0 24 0;
#X connect 26 0 28 0;
#X connect 27 0 26 0;
#X connect 27 1 28 1;
#X connect 28 0 0 0;
#X connect 29 0 40 0;
#X connect 30 0 29 0;
#X connect 30 1 52 0;
#X connect 31 0 29 1;
#X connect 31 0 32 0;
#X connect 33 0 30 0;
#X connect 34 0 35 0;
#X connect 35 0 33 3;
#X connect 36 0 16 0;
#X connect 36 1 34 0;
#X connect 37 0 21 0;
#X connect 38 0 1 1;
#X connect 39 0 1 2;
#X connect 41 0 2 0;
#X connect 42 0 48 0;
#X connect 43 0 45 0;
#X connect 43 0 50 0;
#X connect 44 0 42 0;
#X connect 45 0 46 0;
#X connect 46 0 40 1;
#X connect 47 0 41 0;
#X connect 47 1 10 0;
#X connect 47 2 44 0;
#X connect 48 0 43 0;
#X connect 49 0 40 2;
#X connect 50 0 49 0;
#X connect 51 0 38 1;
#X connect 51 0 39 1;
#X connect 52 0 31 0;
#X connect 53 0 20 0;
#X connect 54 0 53 1;
#X connect 55 0 54 0;
#X restore -271 60 pd rectangle;
#N canvas 738 81 685 694 circle 1;
#X obj 56 226 inlet;
#X obj 117 247 inlet;
#X obj -58 73 gemhead;
#X obj -3 323 translate 1 0 0 0;
#X obj -136 325 translate 1 0 0 0;
#X obj -61 272 separator;
#X obj -136 297 separator;
#X obj -3 295 separator;
#X obj -61 303 curve 2;
#X obj -59 149 t a b b b;
#X obj 96 274 list;
#X obj 96 298 list append 0;
#X obj 0 53 init \$1;
#X obj 0 75 sel 1 2 3;
#X msg 0 99 1 0 0;
#X msg 17 128 0 1 0;
#X msg 34 155 0 0 1;
#X obj 21 226 list;
#X obj 21 250 list append 0;
#X obj -58 102 spigot;
#X obj -58 45 t f f;
#X obj -58 128 color;
#X obj -58 20 r \$0-start;
#X obj 97 535 translate 1 0 0 0;
#X obj 97 353 separator;
#X obj 97 560 text2d;
#X obj 158 558 loadbang;
#X msg 158 581 font ACaslonPro-BoldItalic.otf \, justify left base
;
#X obj 192 184 v x_\$0;
#X obj 244 112 v y_\$0;
#X obj 97 381 t a b;
#X obj 192 205 t f f;
#X obj 192 233 -;
#X obj 244 135 t f f;
#X obj 245 160 -;
#X obj 196 112 t b b;
#X obj 192 255 expr if(abs($f1)>0.3 \, 1 \, 0);
#X obj 245 184 expr if(abs($f1)>0.1 \, 2 \, 0);
#X obj 192 278 sel 1 2;
#X obj 97 480 color 1 1 1;
#X obj 207 328 loadbang;
#X obj 215 375 r hid;
#X obj 215 399 route key_4 key_22 key_7;
#X floatatom 215 428 5 0 0 0 - - -;
#X obj 97 409 spigot;
#X obj 97 454 spigot;
#X obj 130 430 r gui-\$1;
#X msg 192 306 text [ More + ];
#X msg 207 351 text [ Less - ];
#X obj -58 191 alpha;
#X obj 88 147 loadbang;
#X obj 88 170 tgl 15 0 empty empty empty 17 7 0 10 -262144 -1 -1 1
1;
#X obj -61 228 t a a a a a;
#X obj -76 384 separator;
#X obj -77 551 text2d;
#X obj -74 439 translate 1 0 0 0;
#X obj -75 413 color 1 1 1;
#X obj 22 502 loadbang;
#X obj 21 526 f \$1;
#X obj 24 551 sel 1 2 3;
#X msg -29 635 text I;
#X msg 22 602 text II;
#X msg 89 603 text III;
#X obj -66 469 translateXYZ 0.15 -0.1 0;
#X msg 219 531 15;
#X obj 274 495 loadbang;
#X obj 97 508 translateXYZ 0.6 -0.05 0;
#X obj -136 348 circle 0.08;
#X obj -3 348 circle 0.04;
#X obj -171 497 r \$0-rename;
#X obj -175 530 sel 1 0;
#X msg -170 568 text -Drunk-;
#X connect 0 0 17 1;
#X connect 1 0 10 1;
#X connect 2 0 19 0;
#X connect 3 0 68 0;
#X connect 4 0 67 0;
#X connect 5 0 8 0;
#X connect 6 0 4 0;
#X connect 7 0 3 0;
#X connect 9 0 49 0;
#X connect 9 2 17 0;
#X connect 9 3 10 0;
#X connect 10 0 11 0;
#X connect 11 0 8 2;
#X connect 11 0 3 2;
#X connect 11 0 23 2;
#X connect 11 0 55 2;
#X connect 12 0 13 0;
#X connect 13 0 14 0;
#X connect 13 1 15 0;
#X connect 13 2 16 0;
#X connect 14 0 21 1;
#X connect 15 0 21 1;
#X connect 16 0 21 1;
#X connect 17 0 18 0;
#X connect 18 0 8 1;
#X connect 18 0 4 2;
#X connect 19 0 21 0;
#X connect 20 0 2 0;
#X connect 20 1 19 1;
#X connect 21 0 9 0;
#X connect 22 0 20 0;
#X connect 23 0 25 0;
#X connect 24 0 30 0;
#X connect 26 0 27 0;
#X connect 27 0 25 0;
#X connect 27 0 54 0;
#X connect 28 0 31 0;
#X connect 29 0 33 0;
#X connect 30 0 44 0;
#X connect 30 1 35 0;
#X connect 31 0 32 1;
#X connect 31 1 32 0;
#X connect 32 0 36 0;
#X connect 33 0 34 1;
#X connect 33 1 34 0;
#X connect 34 0 37 0;
#X connect 35 0 28 0;
#X connect 35 1 29 0;
#X connect 36 0 38 0;
#X connect 37 0 38 0;
#X connect 38 0 47 0;
#X connect 38 1 48 0;
#X connect 39 0 66 0;
#X connect 40 0 48 0;
#X connect 41 0 42 0;
#X connect 42 0 43 0;
#X connect 42 1 43 0;
#X connect 42 2 43 0;
#X connect 43 0 44 1;
#X connect 44 0 45 0;
#X connect 45 0 39 0;
#X connect 46 0 45 1;
#X connect 47 0 25 0;
#X connect 48 0 25 0;
#X connect 49 0 52 0;
#X connect 50 0 51 0;
#X connect 51 0 49 1;
#X connect 52 0 53 0;
#X connect 52 1 5 0;
#X connect 52 2 6 0;
#X connect 52 3 7 0;
#X connect 52 4 24 0;
#X connect 53 0 56 0;
#X connect 55 0 63 0;
#X connect 56 0 55 0;
#X connect 57 0 58 0;
#X connect 58 0 59 0;
#X connect 59 0 60 0;
#X connect 59 1 61 0;
#X connect 59 2 62 0;
#X connect 60 0 54 0;
#X connect 61 0 54 0;
#X connect 62 0 54 0;
#X connect 63 0 54 0;
#X connect 64 0 25 1;
#X connect 65 0 64 0;
#X connect 66 0 23 0;
#X connect 69 0 70 0;
#X connect 70 0 71 0;
#X connect 70 1 58 0;
#X connect 71 0 54 0;
#X restore -343 327 pd circle;
#N canvas 670 53 622 716 fill-circl 0;
#X obj -378 -182 gemhead;
#X obj -377 28 GEMglEnd;
#X obj -326 -3 GEMglBegin;
#X obj -377 -3 t a a a;
#X obj -358 342 GEMglVertex3f 0 0 0;
#X obj -358 86 t a b;
#X obj -331 109 f;
#X obj -300 109 + 1;
#X obj -286 186 expr $f1*2 *3.1415926;
#X obj -377 -32 GEMglPointSize 2;
#X obj -377 -58 separator;
#X obj -270 108 % 100;
#X obj -358 61 repeat 100;
#X obj -378 -129 alpha;
#X obj -330 140 sel 0;
#X msg -269 -26 9;
#X obj -286 160 expr fmod(($f1/98)+$f2 \, 1);
#X obj -348 201 t b b;
#X obj -216 -240 sel 1 2 3;
#X obj -286 276 expr cos($f1)*$f2+$f3;
#X obj -253 299 expr sin($f1)*$f2+$f3;
#X obj -286 210 t f f b b b;
#X obj -163 252 v x_\$0;
#X obj -348 230 v x_\$0;
#X obj -321 250 v y_\$0;
#X msg -453 -156 auto 1;
#X obj -400 -156 tgl 15 0 empty empty empty 17 7 0 10 -262144 -1 -1
1 1;
#X msg -216 -215 1 0 0;
#X msg -199 -187 0 1 0;
#X msg -182 -160 0 0 1;
#X obj -453 -187 loadbang;
#X obj -378 -318 r \$0-start;
#X obj -378 -295 sel 0 1;
#X msg -359 -270 1;
#X msg -378 -226 0;
#X obj -378 -249 del 500;
#X obj -205 74 inlet;
#X obj -118 118 inlet;
#X obj -130 275 v y_\$0;
#X obj 39 -31 +;
#X obj 42 -142 t b b;
#X obj -42 -59 v a1;
#X obj -42 -34 +;
#X obj -43 -10 v a1;
#X obj -39 -145 t b b;
#X obj 38 -7 v a2;
#X obj 39 -56 v a2;
#X obj -30 -189 t b b b;
#X obj -83 22 pack f f;
#X obj -25 -111 randomF 0.2;
#X obj 56 -108 randomF 0.2;
#X obj 56 -84 - 0.1;
#X obj -25 -87 - 0.1;
#X obj -216 -262 init \$1;
#X obj -377 -82 pix_shader noise\$1;
#X obj -251 -150 list 0.4;
#X msg -251 -126 color \$1 \$2 \$3 \$4;
#X msg -199 -63 vel \$1;
#X obj -377 -107 t a b;
#X obj -118 11 list;
#X msg -118 51 noise \$1 \$2;
#X obj -199 -87 r \$0-vel;
#X obj -141 -62 sel 0;
#X msg -141 -41 0;
#X obj -131 -159 loadbang;
#X msg -131 -99 0;
#X obj -131 -129 del 200;
#X obj -216 -292 del 100;
#X obj -225 250 v r_\$1;
#X msg -270 -208 1 1 1;
#X obj -269 -53 loadbang;
#X connect 0 0 13 0;
#X connect 3 0 1 0;
#X connect 3 1 12 0;
#X connect 3 2 2 0;
#X connect 5 0 4 0;
#X connect 5 1 6 0;
#X connect 6 0 7 0;
#X connect 6 0 14 0;
#X connect 7 0 11 0;
#X connect 8 0 21 0;
#X connect 9 0 3 0;
#X connect 10 0 9 0;
#X connect 11 0 6 1;
#X connect 12 0 5 0;
#X connect 13 0 58 0;
#X connect 14 0 17 0;
#X connect 14 1 16 0;
#X connect 15 0 2 1;
#X connect 16 0 8 0;
#X connect 17 0 23 0;
#X connect 17 1 24 0;
#X connect 18 0 27 0;
#X connect 18 1 28 0;
#X connect 18 2 29 0;
#X connect 19 0 4 1;
#X connect 20 0 4 2;
#X connect 21 0 19 0;
#X connect 21 1 20 0;
#X connect 21 2 22 0;
#X connect 21 3 38 0;
#X connect 21 4 68 0;
#X connect 22 0 19 2;
#X connect 23 0 4 1;
#X connect 24 0 4 2;
#X connect 25 0 13 0;
#X connect 26 0 13 1;
#X connect 27 0 55 0;
#X connect 28 0 55 0;
#X connect 29 0 55 0;
#X connect 30 0 25 0;
#X connect 30 0 26 0;
#X connect 31 0 32 0;
#X connect 32 0 35 0;
#X connect 32 1 33 0;
#X connect 32 1 67 0;
#X connect 33 0 0 0;
#X connect 34 0 0 0;
#X connect 35 0 34 0;
#X connect 36 0 12 1;
#X connect 36 0 11 1;
#X connect 37 0 16 1;
#X connect 38 0 20 2;
#X connect 39 0 45 0;
#X connect 39 0 48 1;
#X connect 40 0 46 0;
#X connect 40 1 50 0;
#X connect 41 0 42 0;
#X connect 42 0 43 0;
#X connect 42 0 48 0;
#X connect 44 0 41 0;
#X connect 44 1 49 0;
#X connect 46 0 39 0;
#X connect 47 0 59 0;
#X connect 47 1 44 0;
#X connect 47 2 40 0;
#X connect 48 0 59 1;
#X connect 49 0 52 0;
#X connect 50 0 51 0;
#X connect 51 0 39 1;
#X connect 52 0 42 1;
#X connect 53 0 18 0;
#X connect 54 0 10 0;
#X connect 55 0 56 0;
#X connect 56 0 54 1;
#X connect 57 0 54 1;
#X connect 58 0 54 0;
#X connect 58 1 47 0;
#X connect 59 0 60 0;
#X connect 60 0 54 1;
#X connect 61 0 57 0;
#X connect 61 0 62 0;
#X connect 62 0 63 0;
#X connect 63 0 43 0;
#X connect 63 0 45 0;
#X connect 64 0 66 0;
#X connect 65 0 57 0;
#X connect 66 0 65 0;
#X connect 67 0 53 0;
#X connect 68 0 20 1;
#X connect 68 0 19 1;
#X connect 69 0 55 0;
#X connect 70 0 15 0;
#X restore -88 91 pd fill-circl;
#X obj -13 -169 v x_\$0;
#X obj 6 -144 v y_\$0;
#X obj -30 19 t f f f;
#X obj -5 234 s \$0-area1;
#X obj -95 -106 r \$0-area1;
#X obj -288 -162 t f f;
#X obj -261 -133 expr if($f1>90 && $f1<99 \, 1 \, 0);
#X obj -288 -108 expr if($f1>0 && $f1<10 \, 1 \, 0);
#X obj -271 -46 once;
#X obj -250 -76 sel 1;
#X obj -288 -74 sel 1;
#X obj -271 -21 bng 15 250 50 0 empty empty empty 17 7 0 10 -262144
-1 -1;
#X obj 150 -131 init \$1;
#X obj 150 -151 bng 15 250 50 0 empty empty empty 17 7 0 10 -262144
-1 -1;
#X msg 150 -86 send /click1;
#X msg 150 -110 set send /click\$1;
#X obj 61 0 spigot;
#X obj 114 -36 r \$0-start;
#X obj 114 -14 pipe 500;
#X obj -162 13 f 0;
#X obj 165 198 hsl 50 15 0 1 0 0 empty empty Vel 10 7 0 10 -228856
-1 -1 0 1;
#X obj 167 273 s \$0-vel;
#X obj -186 231 k_range -4 4 0 200;
#X obj -141 258 k_range 4 -4 0 200;
#X obj -165 336 k_range -4 4 0 200;
#X obj -120 311 k_range 4 -4 0 200;
#X obj -165 361 pack f f;
#X obj -186 386 list;
#X obj -186 432 s mainline\$1;
#X obj -186 284 pack f f;
#X obj -304 240 t a b b;
#X obj 138 305 r mouseSize;
#X msg 138 327 \$2 \$1;
#X obj 138 349 route \$1;
#X obj -189 -35 metro 5;
#X obj 241 84 r mouseOpen;
#X msg 241 106 \$2 \$1;
#X obj 241 129 route \$1;
#X obj 215 487 v cx-\$1;
#X obj 276 486 v cy-\$1;
#X obj 163 103 r \$0-dir;
#X obj -146 386 > 0;
#X obj -186 410 spigot;
#X obj 572 369 r hid;
#X obj 572 393 route key_22;
#X obj 518 440 *;
#X obj 551 437 *;
#X obj 447 377 r hid;
#X obj 394 450 *;
#X obj 427 447 *;
#X obj 447 401 route key_4;
#N canvas 494 22 471 532 vel 0;
#X obj 105 77 t f f;
#X obj 106 147 -;
#X obj 124 268 t b f;
#X floatatom 123 387 5 0 0 0 - - -;
#X obj 157 -17 t f f;
#X obj 158 32 -;
#X obj 185 141 t b f;
#X obj 158 298 + 0;
#X obj 105 28 inlet x;
#X obj 151 -40 inlet y;
#X obj 125 437 outlet speed;
#X obj 221 346 moses 1;
#X msg 260 371 1;
#X obj 105 192 sel 0;
#X obj 158 75 sel 0;
#X obj 158 324 moses 0;
#X msg 158 344 0;
#X obj 123 298 f 0;
#X obj 31 179 loadbang;
#X msg 31 201 0;
#X obj 158 56 expr if(abs($f1)>0.1 \, -0.01 \, 0);
#X obj 105 169 expr if(abs($f1)>0.1 \, 0.01 \, 0);
#X obj 123 412 expr int($f1*100)/100;
#X connect 0 0 1 1;
#X connect 0 1 1 0;
#X connect 1 0 21 0;
#X connect 2 0 17 0;
#X connect 2 1 7 1;
#X connect 3 0 22 0;
#X connect 4 0 5 1;
#X connect 4 1 5 0;
#X connect 5 0 20 0;
#X connect 6 0 17 0;
#X connect 6 1 7 1;
#X connect 7 0 15 0;
#X connect 8 0 0 0;
#X connect 9 0 4 0;
#X connect 11 0 17 1;
#X connect 11 1 12 0;
#X connect 12 0 3 0;
#X connect 13 1 2 0;
#X connect 14 1 6 0;
#X connect 15 0 16 0;
#X connect 15 1 11 0;
#X connect 16 0 3 0;
#X connect 17 0 3 0;
#X connect 17 0 7 0;
#X connect 18 0 19 0;
#X connect 19 0 17 0;
#X connect 20 0 14 0;
#X connect 21 0 13 0;
#X connect 22 0 10 0;
#X restore 393 491 pd vel;
#X obj 680 379 r hid;
#X obj 626 450 *;
#X obj 659 447 *;
#X obj 680 403 route key_7;
#N canvas 619 22 468 521 area 0;
#X obj 105 77 t f f;
#X obj 98 137 -;
#X obj 110 229 t b f;
#X floatatom 110 348 5 0 0 0 - - -;
#X obj 157 -17 t f f;
#X obj 158 32 -;
#X obj 190 109 t b f;
#X obj 145 259 + 0;
#X obj 105 28 inlet x;
#X obj 151 -40 inlet y;
#X obj 109 425 outlet speed;
#X obj 208 307 moses 1;
#X msg 247 332 1;
#X obj 96 182 sel 0;
#X obj 158 75 sel 0;
#X obj 145 285 moses 0;
#X msg 145 305 0;
#X obj 110 397 + 5;
#X obj 110 373 expr int($f1*95)+5;
#X obj 110 259 f 1;
#X obj 18 202 loadbang;
#X msg 18 224 1;
#X obj 96 159 expr if(abs($f1)>0.1 \, 0.01 \, 0);
#X obj 158 56 expr if(abs($f1)>0.1 \, -0.01 \, 0);
#X connect 0 0 1 1;
#X connect 0 1 1 0;
#X connect 1 0 22 0;
#X connect 2 0 19 0;
#X connect 2 1 7 1;
#X connect 3 0 18 0;
#X connect 4 0 5 1;
#X connect 4 1 5 0;
#X connect 5 0 23 0;
#X connect 6 0 19 0;
#X connect 6 1 7 1;
#X connect 7 0 15 0;
#X connect 8 0 0 0;
#X connect 9 0 4 0;
#X connect 11 0 19 1;
#X connect 11 1 12 0;
#X connect 12 0 3 0;
#X connect 13 1 2 0;
#X connect 14 1 6 0;
#X connect 15 0 16 0;
#X connect 15 1 11 0;
#X connect 16 0 3 0;
#X connect 17 0 10 0;
#X connect 18 0 17 0;
#X connect 19 0 3 0;
#X connect 19 0 7 0;
#X connect 20 0 21 0;
#X connect 21 0 19 0;
#X connect 22 0 13 0;
#X connect 23 0 14 0;
#X restore 625 491 pd area;
#X obj 625 516 s \$0-area;
#X floatatom 180 84 5 0 0 0 - - -;
#X floatatom 223 -27 5 0 0 0 - - -;
#X obj 223 -55 k_spring 1;
#X obj 56 -231 v vel-\$1;
#X floatatom 55 -133 5 0 0 0 - - -;
#X obj 55 -158 expr 1-$f1;
#X obj 177 222 v vel-\$1;
#X obj 30 112 v speed-\$1;
#X obj -15 212 v area-\$1;
#X obj 167 249 * 3;
#X obj 102 244 v r_\$1;
#X obj -101 120 v r_\$1;
#X obj 147 -212 v r_\$1;
#X obj -16 -105 pack f f f f f;
#X obj -28 -195 t f b b b b;
#X msg 256 -230 set send /env\$1 \, adddollar 1 \, adddollar 2 \, adddollar
3 \, adddollar 4 \, adddollar 5;
#X floatatom 173 -172 5 0 0 0 - - -;
#X obj -253 24 s ch-color;
#X msg 369 111 color \$1;
#X obj 371 58 sel 0 1;
#X msg 401 85 13;
#X msg 371 85 10;
#X floatatom 75 -207 5 0 0 0 - - -;
#X obj 55 -185 * 0.4;
#X obj -311 99 s click_\$1;
#X obj 144 122 tgl 30 0 empty empty empty 17 7 0 10 -262144 -1 -1 0
1;
#X obj 493 -41 loadbang;
#X msg 495 -19 0;
#X obj 494 40 metro 1000;
#X obj 626 34 r W_H;
#X obj 626 65 expr ($f1/$f2)*8;
#X obj 645 90 expr ($f1/$f2)*4;
#X obj 504 123 -;
#X obj 504 99 randomF 1;
#X obj 574 134 randomF 8;
#X obj 574 157 - 4;
#X msg 504 165 \$1 500;
#X floatatom 570 37 5 0 0 0 - - -;
#X obj 493 63 t b b b;
#X obj 502 195 line;
#X obj 569 206 line;
#X msg 572 182 \$1 500;
#X obj 14 46 r tomove;
#X obj 14 71 route \$1;
#X obj 14 93 bng 15 250 50 0 empty empty empty 17 7 0 10 -262144 -1
-1;
#X obj 570 14 + 300;
#X obj 571 -10 random 400;
#X obj 447 266 spigot;
#X obj 505 294 spigot;
#N canvas 878 259 415 416 last 0;
#X obj 158 31 inlet;
#X obj 188 134 f;
#X obj 256 63 metro 30;
#X obj 218 161 moses 0;
#X msg 220 191 0;
#X floatatom 235 216 5 0 0 0 - - -;
#X obj 158 56 t b;
#X msg 158 80 1;
#X floatatom 188 200 5 0 0 0 - - -;
#X obj 257 42 tgl 15 0 empty empty empty 17 7 0 10 -262144 -1 -1 1
1;
#X obj 259 16 loadbang;
#X obj 220 135 - 0.1;
#X obj 189 268 invert;
#X obj 188 236 > 0.1;
#X obj 189 296 outlet;
#X connect 0 0 6 0;
#X connect 1 0 8 0;
#X connect 1 0 11 0;
#X connect 2 0 1 0;
#X connect 3 0 4 0;
#X connect 3 1 5 0;
#X connect 4 0 5 0;
#X connect 5 0 1 1;
#X connect 6 0 7 0;
#X connect 7 0 1 1;
#X connect 8 0 13 0;
#X connect 9 0 2 0;
#X connect 10 0 9 0;
#X connect 11 0 3 0;
#X connect 12 0 14 0;
#X connect 13 0 12 0;
#X restore 309 272 pd last;
#X obj 347 -89 sel 1;
#X obj 347 -12 line;
#X obj 212 59 + 0;
#X obj 347 -60 del 2000;
#X msg 347 -36 0 \, 0.0001 5000;
#X obj 429 139 s \$0-rename;
#X connect 0 0 9 0;
#X connect 1 0 128 0;
#X connect 2 0 98 0;
#X connect 3 0 71 0;
#X connect 3 0 134 0;
#X connect 4 0 0 1;
#X connect 4 0 109 0;
#X connect 4 0 133 0;
#X connect 5 0 46 0;
#X connect 5 0 176 0;
#X connect 6 0 34 0;
#X connect 7 0 60 0;
#X connect 8 0 66 1;
#X connect 9 0 87 1;
#X connect 10 0 126 0;
#X connect 10 0 178 0;
#X connect 11 0 10 1;
#X connect 12 0 17 0;
#X connect 15 0 2 0;
#X connect 15 0 90 0;
#X connect 16 0 2 1;
#X connect 16 0 91 0;
#X connect 17 0 15 0;
#X connect 17 1 16 0;
#X connect 17 2 18 0;
#X connect 17 3 19 0;
#X connect 17 4 137 0;
#X connect 18 0 15 2;
#X connect 19 0 16 2;
#X connect 20 0 5 0;
#X connect 21 0 35 0;
#X connect 22 0 12 0;
#X connect 22 0 140 0;
#X connect 23 0 14 0;
#X connect 23 0 107 0;
#X connect 23 0 114 0;
#X connect 23 0 117 0;
#X connect 23 0 122 0;
#X connect 24 0 13 0;
#X connect 24 0 106 0;
#X connect 24 0 113 0;
#X connect 24 0 116 0;
#X connect 24 0 121 0;
#X connect 25 0 67 0;
#X connect 25 2 9 1;
#X connect 26 0 8 0;
#X connect 26 0 92 0;
#X connect 27 0 8 1;
#X connect 27 0 93 0;
#X connect 28 0 44 0;
#X connect 29 0 32 0;
#X connect 30 0 31 0;
#X connect 31 0 6 0;
#X connect 31 0 175 0;
#X connect 31 1 7 0;
#X connect 32 0 30 0;
#X connect 33 0 20 0;
#X connect 33 0 147 0;
#X connect 34 0 24 0;
#X connect 35 0 49 0;
#X connect 36 0 37 0;
#X connect 38 0 4 0;
#X connect 39 0 3 0;
#X connect 40 0 41 0;
#X connect 40 1 87 0;
#X connect 42 0 43 0;
#X connect 43 0 10 0;
#X connect 44 0 178 1;
#X connect 44 1 45 0;
#X connect 45 0 43 1;
#X connect 47 0 50 0;
#X connect 48 0 102 0;
#X connect 49 0 59 0;
#X connect 50 0 53 0;
#X connect 50 1 52 0;
#X connect 51 0 49 0;
#X connect 52 0 21 0;
#X connect 53 0 51 0;
#X connect 56 0 141 0;
#X connect 57 0 84 0;
#X connect 58 0 57 0;
#X connect 59 0 136 0;
#X connect 60 0 23 0;
#X connect 61 0 25 0;
#X connect 62 0 64 0;
#X connect 63 0 62 0;
#X connect 64 0 34 1;
#X connect 64 0 60 1;
#X connect 68 0 139 1;
#X connect 69 0 139 2;
#X connect 70 0 67 1;
#X connect 70 1 22 1;
#X connect 70 2 65 1;
#X connect 72 0 61 0;
#X connect 73 0 75 0;
#X connect 73 1 74 0;
#X connect 74 0 77 0;
#X connect 75 0 78 0;
#X connect 76 0 79 0;
#X connect 77 0 76 1;
#X connect 78 0 76 0;
#X connect 79 0 65 0;
#X connect 79 0 82 0;
#X connect 79 0 143 0;
#X connect 79 0 150 0;
#X connect 80 0 83 0;
#X connect 81 0 80 0;
#X connect 82 0 57 0;
#X connect 83 0 82 0;
#X connect 84 0 55 0;
#X connect 85 0 86 0;
#X connect 86 0 84 1;
#X connect 87 0 0 0;
#X connect 87 0 22 0;
#X connect 87 0 73 0;
#X connect 88 0 132 0;
#X connect 88 0 135 0;
#X connect 90 0 97 0;
#X connect 91 0 97 1;
#X connect 92 0 94 0;
#X connect 93 0 94 1;
#X connect 94 0 95 1;
#X connect 95 0 110 0;
#X connect 97 0 95 0;
#X connect 98 0 66 0;
#X connect 98 1 26 0;
#X connect 98 2 27 0;
#X connect 99 0 100 0;
#X connect 100 0 101 0;
#X connect 101 0 49 0;
#X connect 102 0 40 0;
#X connect 103 0 104 0;
#X connect 104 0 105 0;
#X connect 105 0 5 0;
#X connect 105 0 145 0;
#X connect 108 0 1 0;
#X connect 109 0 110 1;
#X connect 110 0 96 0;
#X connect 111 0 112 0;
#X connect 112 0 113 1;
#X connect 112 0 114 1;
#X connect 113 0 36 0;
#X connect 114 0 36 1;
#X connect 115 0 118 0;
#X connect 116 0 119 0;
#X connect 117 0 119 1;
#X connect 118 0 116 1;
#X connect 118 0 117 1;
#X connect 119 0 88 0;
#X connect 120 0 123 0;
#X connect 121 0 124 0;
#X connect 122 0 124 1;
#X connect 123 0 121 1;
#X connect 123 0 122 1;
#X connect 124 0 125 0;
#X connect 126 0 70 0;
#X connect 127 0 10 0;
#X connect 128 0 127 0;
#X connect 129 0 148 0;
#X connect 129 0 149 0;
#X connect 130 0 139 3;
#X connect 131 0 130 0;
#X connect 135 0 89 0;
#X connect 137 0 15 1;
#X connect 137 0 16 1;
#X connect 138 0 139 4;
#X connect 138 0 142 0;
#X connect 139 0 58 0;
#X connect 140 0 139 0;
#X connect 140 1 68 0;
#X connect 140 2 69 0;
#X connect 140 3 129 0;
#X connect 140 4 138 0;
#X connect 141 0 58 0;
#X connect 144 0 5 0;
#X connect 145 0 147 0;
#X connect 145 1 146 0;
#X connect 146 0 144 0;
#X connect 147 0 144 0;
#X connect 149 0 131 0;
#X connect 151 0 154 0;
#X connect 151 0 181 0;
#X connect 152 0 153 0;
#X connect 153 0 151 0;
#X connect 154 0 164 0;
#X connect 155 0 156 0;
#X connect 155 0 157 0;
#X connect 156 0 159 1;
#X connect 157 0 158 1;
#X connect 158 0 162 0;
#X connect 159 0 158 0;
#X connect 160 0 161 0;
#X connect 161 0 167 0;
#X connect 162 0 165 0;
#X connect 163 0 154 1;
#X connect 164 0 159 0;
#X connect 164 1 160 0;
#X connect 164 2 172 0;
#X connect 165 0 173 0;
#X connect 166 0 174 0;
#X connect 167 0 166 0;
#X connect 168 0 169 0;
#X connect 169 0 170 0;
#X connect 170 0 151 0;
#X connect 171 0 163 0;
#X connect 172 0 171 0;
#X connect 173 0 6 0;
#X connect 174 0 7 0;
#X connect 175 0 173 1;
#X connect 175 0 174 1;
#X connect 176 0 179 0;
#X connect 177 0 28 0;
#X connect 178 0 11 0;
#X connect 179 0 180 0;
#X connect 180 0 177 0;
#X coords 0 -1 1 1 120 120 1 100 100;
