#N canvas 322 210 813 451 10;
#X obj 300 22 r all;
#X obj 100 124 unpack f f;
#X obj 100 174 osc~;
#X floatatom 100 149 5 0 0 0 - - -;
#X floatatom 157 149 5 0 0 0 - - -;
#X obj 100 205 *~;
#X msg 157 173 \$1 20;
#X obj 157 198 line~;
#X obj 374 137 unpack f f;
#X floatatom 374 162 5 0 0 0 - - -;
#X floatatom 452 158 5 0 0 0 - - -;
#X obj 374 218 *~;
#X msg 452 182 \$1 20;
#X obj 452 207 line~;
#X obj 221 128 unpack f f;
#X floatatom 221 153 5 0 0 0 - - -;
#X floatatom 299 149 5 0 0 0 - - -;
#X obj 221 239 *~;
#X msg 299 173 \$1 20;
#X obj 299 198 line~;
#X obj 221 178 noise~;
#X obj 100 263 throw~ s1;
#X obj 374 274 throw~ s2;
#X obj 221 295 throw~ s3;
#X obj 500 232 unpack f f;
#X obj 300 50 route /red\$1 /blue\$1 /green\$1 /pos\$1;
#X obj 596 392 throw~ s4;
#X obj 500 315 osc~;
#X obj 610 202 metro;
#X obj 611 287 line~;
#X obj 610 179 tgl 15 0 empty empty empty 0 -6 0 10 -262144 -1 -1 1
1;
#X obj 610 154 loadbang;
#X obj 596 313 *~;
#X obj 701 166 pipe 200;
#X msg 610 258 0.5 1;
#X msg 658 253 0 1;
#X obj 658 229 del 5;
#X obj 701 192 -;
#X obj 701 219 abs;
#X obj 701 118 * 1000;
#X obj 701 242 / 4000;
#X floatatom 701 265 5 0 0 0 - - -;
#X obj 596 342 *~;
#X obj 701 313 line~;
#X obj 701 141 t f f;
#X obj 610 229 t b b;
#X obj 221 203 bp~ 100 1;
#X obj 221 269 *~ 0.1;
#X obj 100 232 *~ 0.3;
#X msg 701 289 \$1 1000;
#X obj 374 187 square~;
#X obj 374 246 *~ 0.2;
#X obj 500 285 + 400;
#X obj 500 258 expr abs($f1*120);
#X connect 0 0 25 0;
#X connect 1 0 3 0;
#X connect 1 1 4 0;
#X connect 2 0 5 0;
#X connect 3 0 2 0;
#X connect 4 0 6 0;
#X connect 5 0 48 0;
#X connect 6 0 7 0;
#X connect 7 0 5 1;
#X connect 8 0 9 0;
#X connect 8 1 10 0;
#X connect 9 0 50 0;
#X connect 10 0 12 0;
#X connect 11 0 51 0;
#X connect 12 0 13 0;
#X connect 13 0 11 1;
#X connect 14 0 15 0;
#X connect 14 1 16 0;
#X connect 15 0 46 1;
#X connect 16 0 18 0;
#X connect 17 0 47 0;
#X connect 18 0 19 0;
#X connect 19 0 17 1;
#X connect 20 0 46 0;
#X connect 24 0 53 0;
#X connect 24 1 39 0;
#X connect 25 0 1 0;
#X connect 25 1 14 0;
#X connect 25 2 8 0;
#X connect 25 3 24 0;
#X connect 27 0 32 0;
#X connect 28 0 45 0;
#X connect 29 0 32 1;
#X connect 30 0 28 0;
#X connect 31 0 30 0;
#X connect 32 0 42 0;
#X connect 33 0 37 0;
#X connect 34 0 29 0;
#X connect 35 0 29 0;
#X connect 36 0 35 0;
#X connect 37 0 38 0;
#X connect 38 0 40 0;
#X connect 39 0 44 0;
#X connect 40 0 41 0;
#X connect 41 0 49 0;
#X connect 42 0 26 0;
#X connect 43 0 42 1;
#X connect 44 0 33 0;
#X connect 44 1 37 1;
#X connect 45 0 34 0;
#X connect 45 1 36 0;
#X connect 46 0 17 0;
#X connect 47 0 23 0;
#X connect 48 0 21 0;
#X connect 49 0 43 0;
#X connect 50 0 11 0;
#X connect 51 0 22 0;
#X connect 52 0 27 0;
#X connect 53 0 52 0;
