#N canvas 967 403 338 260 10;
#X declare -lib mrpeach;
#X declare -path abs;
#N canvas 420 184 1020 716 s-main 0;
#X obj -56 316 dac~;
#X obj 100 -189 r all;
#X obj 300 -133 ss 0;
#X obj 402 -226 import mrpeach;
#X obj 403 -205 udpreceive 9999;
#X obj 403 -184 unpackOSC;
#X obj 403 -163 s all;
#X obj 20 23 loadbang;
#X msg 20 45 \; pd dsp 1;
#X obj 11 -155 catch~ s4;
#X obj 100 15 st-pureverb /d;
#X obj 300 -221 808_global /key;
#N canvas 0 22 503 551 savedata 0;
#X obj 10 10 inlet;
#X msg 10 40 \; SSSAD /m20/controls 0 0.49 1 0.269661 \; SSSAD /key/controls
0 0.1 1 0.49 2 0.3 3 0.49 4 0.6 5 0.49 6 0.49 \; SSSAD /eft5/controls
0 0.135763 1 0.48322 2 0.477119 3 1 4 0.49 \; SSSAD /eft3/controls
0 0.984237 1 0.61678 2 0.49 \; SSSAD /eft4/controls 0 0.49 1 0.49 2
0.2 3 0.115254 4 0.49 \; SSSAD /eft2/controls 0 0.135763 1 0.48322
2 0.477119 3 0.498983 \; SSSAD /eft1/controls 0 0.135763 1 0.48322
2 0.477119 3 0.388305 \; SSSAD /eee1/controls 0 0.685085 1 0.488136
2 0.496102 3 0.503898 \; SSSAD /m17/controls 0 0.79661 1 1 2 0.223729
3 0.779661 \; SSSAD /m16/controls 0 1 1 1 2 0.308475 3 0.779661 \;
SSSAD /m12/controls 0 0.440678 1 0.1 2 0 3 0.56678 \; SSSAD /m10/controls
0 0.48322 1 0.627119 \; SSSAD /m2/controls 0 0.309661 1 0.564237 2
0.61339 3 0.380339 \; SSSAD /cccc/controls 0 0.49 1 0.8 2 0.7 3 0.6
4 0.55 5 0.42 6 0.55 7 0.6 8 0.35 9 0.341525 \; SSSAD /p1/controls
0 0.539661 1 0.1 2 0 3 0.420678 \; SSSAD /b3/controls 0 1 1 1 2 0.43339
\; SSSAD /p2/controls 0 0.278136 1 0.1 2 0 3 0.482712 \; SSSAD /b2/controls
0 1 1 1 2 0.43339 \; SSSAD /b/controls 0 0.45 1 1 2 0.9 3 0.6 4 0.55
5 0.1 6 0.4 7 0.55 8 0.7 9 0.6 10 0.8 11 0.481356 \; SSSAD /p1/controls
0 0.481695 1 0.1 2 0 3 0.327288 \; SSSAD /b1/controls 0 1 1 1 2 0.43339
\; SSSAD /a/controls 0 0.4 1 0.4 2 0.4 3 0.440678 4 0.7 5 0.474576
6 0.49 7 0.440678 \; SSSAD /d/controls 0 0.56 1 0.6 2 1 3 0.6 \; SSSAD_ADMIN
set \;;
#X connect 0 0 1 0;
#X restore 300 -156 pd savedata;
#X obj 300 -244 loadbang;
#N canvas 619 24 821 740 sound 0;
#X obj 16 4 catch~ s1;
#X obj 16 32 *~ 0;
#X obj 91 -121 inlet;
#X obj 91 52 line~;
#X obj 124 83 line~;
#N canvas 325 420 450 300 pan 0;
#X obj 115 -26 moses 0.5;
#X obj 115 1 expr $f1* 2;
#X floatatom 115 26 5 0 0 0 - - -;
#X obj 115 49 t f f;
#X obj 163 74 expr 1-$f1;
#X obj 195 -36 expr 2*($f1-0.5);
#X floatatom 195 -14 5 0 0 0 - - -;
#X obj 195 6 t f f;
#X obj 195 31 expr 1-$f1;
#X floatatom 196 52 5 0 0 0 - - -;
#X msg 106 96 \$1 20;
#X msg 163 129 \$1 20;
#X obj 163 98 + 0.1;
#X obj 106 70 + 0.1;
#X obj 115 -52 inlet;
#X obj 107 159 outlet;
#X obj 164 162 outlet;
#X connect 0 0 1 0;
#X connect 0 1 5 0;
#X connect 1 0 2 0;
#X connect 2 0 3 0;
#X connect 3 0 13 0;
#X connect 3 1 4 0;
#X connect 4 0 12 0;
#X connect 5 0 6 0;
#X connect 6 0 7 0;
#X connect 7 0 8 0;
#X connect 7 1 12 0;
#X connect 8 0 9 0;
#X connect 9 0 13 0;
#X connect 10 0 15 0;
#X connect 11 0 16 0;
#X connect 12 0 11 0;
#X connect 13 0 10 0;
#X connect 14 0 0 0;
#X restore 91 27 pd pan;
#X obj -4 117 *~;
#X obj 71 151 *~;
#X msg 89 204 0 \$1;
#X obj 91 -80 unpack f f f f f;
#X obj 181 205 *~ 0.5;
#X obj 239 205 *~ 0.5;
#X obj 272 181 k_range -7 7 0.8 0.4;
#X obj 214 158 k_range -7 7 0.4 0.8;
#X obj 250 -33 r all;
#X obj 250 -6 route /click1;
#X obj 2 502 outlet~;
#X obj 175 506 outlet~;
#X obj -119 -84 *;
#X obj -118 -40 sqrt;
#X obj -89 -85 *;
#X obj -118 -62 +;
#X obj -158 163 hip~ 2;
#X obj -118 8 / 3;
#X obj -118 66 line~;
#X obj -118 38 pack f 65;
#X obj -222 42 *~ 0.4;
#X obj -158 207 moog~;
#X floatatom -118 -15 5 0 0 0 - - -;
#X obj -73 -125 * 1000;
#X obj -120 -124 * 1000;
#X obj -222 -5 *~ 0.5;
#X obj -56 -102 t f f;
#X obj -57 -78 -;
#X obj -16 -76 -;
#X obj -16 -100 t f f;
#X obj -57 -48 +;
#X obj -57 -25 abs;
#X floatatom -57 -1 5 0 0 0 - - -;
#X obj -57 46 line~;
#X obj -57 23 pack f 65;
#X obj -131 184 sig~ 1;
#X obj -120 -151 t f f;
#X obj -73 -152 t f f;
#X obj -158 317 *~;
#X obj -57 71 clip~ -1 1;
#X obj 250 18 perk-bassdrum /a;
#X floatatom -118 229 5 0 0 0 - - -;
#X obj 37 -38 expr if($f1<2 \, 1 \, ($f1-2)/10+1);
#X obj -158 267 *~;
#X floatatom 224 -61 5 0 0 0 - - -;
#X obj 296 246 moses 4;
#X msg 332 268 4;
#X msg 296 341 0 \$1;
#X obj 2 342 st-bitcrusher /b1;
#X obj 2 421 st-pitchshifter /p1;
#X obj -158 232 *~ 20;
#X obj -222 -31 _noise~ 2001;
#X obj -222 18 _noise~ 501;
#X obj -279 82 _noise~ 251;
#X obj -324 134 _noise~ 81;
#X obj -257 194 _noise~ 126;
#X obj -250 107 *~ 0.2;
#X obj -324 159 *~ 0.5;
#X obj -257 220 *~ 0.3;
#X floatatom 29 152 5 0 0 0 - - -;
#X msg 29 195 2 \$1;
#X obj 32 125 expr ($f1/0.6)/5+0.1;
#X obj 29 173 change;
#X obj 89 178 change;
#X floatatom 136 152 5 0 0 0 - - -;
#X obj -4 244 spigot~;
#X obj 55 243 spigot~;
#X obj 128 242 tgl 15 0 empty empty empty 17 7 0 10 -262144 -1 -1 1
1;
#X obj 129 217 == 1;
#X obj 281 -66 s a1-size;
#X obj -158 291 *~ 2;
#X obj 296 319 k_range 0 4 0.5 0.3;
#X obj 296 299 f;
#X msg 345 367 3 \$1;
#X obj 345 342 k_range 0 4 0.3 0.6;
#X obj 16 60 *~ 0.6;
#X connect 0 0 1 0;
#X connect 1 0 81 0;
#X connect 2 0 9 0;
#X connect 3 0 6 1;
#X connect 4 0 7 1;
#X connect 5 0 3 0;
#X connect 5 1 4 0;
#X connect 6 0 71 0;
#X connect 7 0 72 0;
#X connect 8 0 54 2;
#X connect 9 0 5 0;
#X connect 9 1 13 0;
#X connect 9 1 12 0;
#X connect 9 1 42 0;
#X connect 9 2 43 0;
#X connect 9 3 67 0;
#X connect 9 3 70 0;
#X connect 9 4 48 0;
#X connect 9 4 50 0;
#X connect 10 0 71 0;
#X connect 11 0 72 0;
#X connect 12 0 11 1;
#X connect 13 0 10 1;
#X connect 14 0 15 0;
#X connect 15 0 46 0;
#X connect 18 0 21 0;
#X connect 19 0 28 0;
#X connect 20 0 21 1;
#X connect 21 0 19 0;
#X connect 22 0 27 0;
#X connect 23 0 25 0;
#X connect 24 0 27 1;
#X connect 25 0 24 0;
#X connect 26 0 22 0;
#X connect 27 0 56 0;
#X connect 28 0 23 0;
#X connect 29 0 20 0;
#X connect 29 0 20 1;
#X connect 30 0 18 0;
#X connect 30 0 18 1;
#X connect 31 0 22 0;
#X connect 32 0 33 1;
#X connect 32 1 33 0;
#X connect 33 0 36 0;
#X connect 34 0 36 1;
#X connect 35 0 34 1;
#X connect 35 1 34 0;
#X connect 36 0 37 0;
#X connect 37 0 38 0;
#X connect 38 0 40 0;
#X connect 39 0 45 0;
#X connect 40 0 39 0;
#X connect 41 0 27 2;
#X connect 42 0 30 0;
#X connect 42 1 32 0;
#X connect 43 0 29 0;
#X connect 43 1 35 0;
#X connect 44 0 7 0;
#X connect 44 0 6 0;
#X connect 45 0 44 1;
#X connect 46 0 10 0;
#X connect 46 0 11 0;
#X connect 47 0 49 1;
#X connect 48 0 1 1;
#X connect 48 0 47 0;
#X connect 49 0 76 0;
#X connect 50 0 51 0;
#X connect 50 0 75 0;
#X connect 51 0 78 0;
#X connect 51 1 52 0;
#X connect 52 0 78 0;
#X connect 53 0 55 2;
#X connect 54 0 55 0;
#X connect 54 1 55 1;
#X connect 55 0 16 0;
#X connect 55 1 17 0;
#X connect 56 0 49 0;
#X connect 57 0 31 0;
#X connect 58 0 26 0;
#X connect 59 0 62 0;
#X connect 60 0 63 0;
#X connect 61 0 64 0;
#X connect 62 0 22 0;
#X connect 63 0 22 0;
#X connect 64 0 22 0;
#X connect 65 0 68 0;
#X connect 66 0 54 2;
#X connect 67 0 65 0;
#X connect 68 0 66 0;
#X connect 69 0 8 0;
#X connect 70 0 69 0;
#X connect 70 0 74 0;
#X connect 71 0 54 0;
#X connect 71 1 55 0;
#X connect 72 0 54 1;
#X connect 72 1 55 1;
#X connect 73 0 72 1;
#X connect 73 0 71 1;
#X connect 74 0 73 0;
#X connect 76 0 44 0;
#X connect 77 0 53 0;
#X connect 78 0 77 0;
#X connect 78 0 80 0;
#X connect 79 0 55 2;
#X connect 80 0 79 0;
#X connect 81 0 6 0;
#X connect 81 0 7 0;
#X restore 100 -128 pd sound 1;
#N canvas 506 40 856 747 sound 0;
#X obj 16 32 *~ 0;
#X obj 91 -121 inlet;
#X obj 91 52 line~;
#X obj 124 83 line~;
#N canvas 325 420 450 300 pan 0;
#X obj 115 -26 moses 0.5;
#X obj 115 1 expr $f1* 2;
#X floatatom 115 26 5 0 0 0 - - -;
#X obj 115 49 t f f;
#X obj 163 74 expr 1-$f1;
#X obj 195 -36 expr 2*($f1-0.5);
#X floatatom 195 -14 5 0 0 0 - - -;
#X obj 195 6 t f f;
#X obj 195 31 expr 1-$f1;
#X floatatom 196 52 5 0 0 0 - - -;
#X msg 106 96 \$1 20;
#X msg 163 129 \$1 20;
#X obj 163 98 + 0.1;
#X obj 106 70 + 0.1;
#X obj 115 -52 inlet;
#X obj 107 159 outlet;
#X obj 164 162 outlet;
#X connect 0 0 1 0;
#X connect 0 1 5 0;
#X connect 1 0 2 0;
#X connect 2 0 3 0;
#X connect 3 0 13 0;
#X connect 3 1 4 0;
#X connect 4 0 12 0;
#X connect 5 0 6 0;
#X connect 6 0 7 0;
#X connect 7 0 8 0;
#X connect 7 1 12 0;
#X connect 8 0 9 0;
#X connect 9 0 13 0;
#X connect 10 0 15 0;
#X connect 11 0 16 0;
#X connect 12 0 11 0;
#X connect 13 0 10 0;
#X connect 14 0 0 0;
#X restore 91 27 pd pan;
#X obj -4 117 *~;
#X obj 75 122 *~;
#X msg 89 204 0 \$1;
#X obj 91 -80 unpack f f f f f;
#X obj 181 205 *~ 0.5;
#X obj 239 205 *~ 0.5;
#X obj 272 181 k_range -7 7 0.8 0.4;
#X obj 214 158 k_range -7 7 0.4 0.8;
#X obj 247 -110 r all;
#X obj -109 -139 t f f;
#X obj -62 -140 t f f;
#X obj 16 4 catch~ s2;
#X obj 247 -59 perk-hihat /b;
#X obj 247 -83 route /click2;
#X obj -148 -10 sqrt;
#X obj -148 69 line~;
#X obj -280 199 hip~ 2;
#X obj -148 42 pack f 50;
#X obj -162 162 moog~;
#X obj -149 -55 *;
#X obj -119 -56 *;
#X obj -148 -33 +;
#X obj -103 -96 * 1000;
#X obj -81 33 t f f;
#X obj -82 57 -;
#X obj -41 59 -;
#X obj -41 35 t f f;
#X obj -85 89 +;
#X obj -85 112 abs;
#X floatatom -85 136 5 0 0 0 - - -;
#X obj -110 252 line~;
#X obj -129 359 *~;
#X obj -110 229 pack f 50;
#X obj -148 15 / 2;
#X obj -110 276 clip~ -1 1;
#X obj -101 198 sig~ 1;
#X obj -150 -95 * 1000;
#X obj 37 -38 expr if($f1<2 \, 1 \, ($f1-2)/5+1);
#X obj -162 201 *~ 1;
#X obj 306 256 moses 4;
#X msg 342 278 4;
#X obj 9 551 outlet~;
#X obj 182 545 outlet~;
#X obj 9 396 st-bitcrusher /b2;
#X obj 9 472 st-pitchshifter /p2;
#X obj -162 240 *~ 20;
#X obj -329 -45 _osc~ 607;
#X obj -283 -1 _osc~ 297;
#X obj -250 21 _osc~ 125;
#X obj -240 56 _osc~ 95;
#X obj -234 91 _osc~ 63;
#X obj -237 134 _osc~ 30;
#X obj -298 51 *~ 0.1;
#X obj -329 -20 *~ 0.15;
#X obj -287 81 *~ 0.2;
#X obj -278 116 *~ 0.1;
#X obj -242 166 *~ 0.2;
#X floatatom 43 188 5 0 0 0 - - -;
#X msg 43 209 2 \$1;
#X obj 43 163 expr ($f1/0.6)/5+0.1;
#X obj 6 254 spigot~;
#X obj 75 281 spigot~;
#X obj 130 226 tgl 15 0 empty empty empty 17 7 0 10 -262144 -1 -1 1
1;
#X obj 131 201 == 1;
#X obj 178 3 s a2-size;
#X obj -148 301 *~ 1;
#X msg 306 349 0 \$1;
#X obj 306 307 f;
#X msg 355 375 3 \$1;
#X obj 355 348 k_range 0 4 0.3 0.6;
#X obj -4 70 *~ 0.3;
#X obj 306 327 k_range 0 4 0.4 0.2;
#X connect 0 0 75 0;
#X connect 1 0 8 0;
#X connect 2 0 5 1;
#X connect 3 0 6 1;
#X connect 4 0 2 0;
#X connect 4 1 3 0;
#X connect 5 0 65 0;
#X connect 6 0 66 0;
#X connect 7 0 48 2;
#X connect 8 0 4 0;
#X connect 8 1 12 0;
#X connect 8 1 11 0;
#X connect 8 1 14 0;
#X connect 8 2 15 0;
#X connect 8 3 7 0;
#X connect 8 3 64 0;
#X connect 8 3 68 0;
#X connect 8 4 42 0;
#X connect 8 4 44 0;
#X connect 8 4 69 0;
#X connect 9 0 65 0;
#X connect 10 0 66 0;
#X connect 11 0 10 1;
#X connect 12 0 9 1;
#X connect 13 0 18 0;
#X connect 14 0 41 0;
#X connect 14 1 28 0;
#X connect 15 0 27 0;
#X connect 15 1 31 0;
#X connect 16 0 0 0;
#X connect 17 0 9 0;
#X connect 17 0 10 0;
#X connect 18 0 17 0;
#X connect 19 0 38 0;
#X connect 20 0 23 1;
#X connect 21 0 23 0;
#X connect 22 0 20 0;
#X connect 23 0 43 0;
#X connect 24 0 26 0;
#X connect 25 0 26 1;
#X connect 26 0 19 0;
#X connect 27 0 25 0;
#X connect 27 0 25 1;
#X connect 28 0 29 1;
#X connect 28 1 29 0;
#X connect 29 0 32 0;
#X connect 30 0 32 1;
#X connect 31 0 30 1;
#X connect 31 1 30 0;
#X connect 32 0 33 0;
#X connect 33 0 34 0;
#X connect 34 0 37 0;
#X connect 35 0 39 0;
#X connect 36 0 5 0;
#X connect 36 0 6 0;
#X connect 37 0 35 0;
#X connect 38 0 22 0;
#X connect 39 0 36 1;
#X connect 40 0 23 2;
#X connect 41 0 24 0;
#X connect 41 0 24 1;
#X connect 42 0 0 1;
#X connect 42 0 43 1;
#X connect 43 0 50 0;
#X connect 44 0 72 0;
#X connect 44 1 45 0;
#X connect 45 0 72 0;
#X connect 48 0 49 0;
#X connect 48 1 49 1;
#X connect 49 0 46 0;
#X connect 49 1 47 0;
#X connect 50 0 70 0;
#X connect 51 0 58 0;
#X connect 52 0 57 0;
#X connect 53 0 57 0;
#X connect 54 0 59 0;
#X connect 55 0 60 0;
#X connect 56 0 61 0;
#X connect 57 0 21 0;
#X connect 58 0 21 0;
#X connect 59 0 21 0;
#X connect 60 0 21 0;
#X connect 61 0 21 0;
#X connect 62 0 63 0;
#X connect 63 0 48 2;
#X connect 64 0 62 0;
#X connect 65 0 48 0;
#X connect 65 1 49 0;
#X connect 66 0 48 1;
#X connect 66 1 49 1;
#X connect 67 0 66 1;
#X connect 67 0 65 1;
#X connect 68 0 67 0;
#X connect 70 0 36 0;
#X connect 71 0 49 2;
#X connect 72 0 74 0;
#X connect 72 0 76 0;
#X connect 73 0 49 2;
#X connect 74 0 73 0;
#X connect 75 0 5 0;
#X connect 75 0 6 0;
#X connect 76 0 71 0;
#X restore 145 -97 pd sound 2;
#N canvas 573 83 867 765 sound 0;
#X obj 16 32 *~ 0;
#X obj 91 -121 inlet;
#X obj 91 52 line~;
#X obj 124 83 line~;
#N canvas 325 420 450 300 pan 0;
#X obj 115 -26 moses 0.5;
#X obj 115 1 expr $f1* 2;
#X floatatom 115 26 5 0 0 0 - - -;
#X obj 115 49 t f f;
#X obj 163 74 expr 1-$f1;
#X obj 195 -36 expr 2*($f1-0.5);
#X floatatom 195 -14 5 0 0 0 - - -;
#X obj 195 6 t f f;
#X obj 195 31 expr 1-$f1;
#X floatatom 196 52 5 0 0 0 - - -;
#X msg 106 96 \$1 20;
#X msg 163 129 \$1 20;
#X obj 163 98 + 0.1;
#X obj 106 70 + 0.1;
#X obj 115 -52 inlet;
#X obj 107 159 outlet;
#X obj 164 162 outlet;
#X connect 0 0 1 0;
#X connect 0 1 5 0;
#X connect 1 0 2 0;
#X connect 2 0 3 0;
#X connect 3 0 13 0;
#X connect 3 1 4 0;
#X connect 4 0 12 0;
#X connect 5 0 6 0;
#X connect 6 0 7 0;
#X connect 7 0 8 0;
#X connect 7 1 12 0;
#X connect 8 0 9 0;
#X connect 9 0 13 0;
#X connect 10 0 15 0;
#X connect 11 0 16 0;
#X connect 12 0 11 0;
#X connect 13 0 10 0;
#X connect 14 0 0 0;
#X restore 91 27 pd pan;
#X obj -4 117 *~;
#X obj 66 117 *~;
#X msg 89 204 0 \$1;
#X obj 91 -80 unpack f f f f f;
#X obj 181 205 *~ 0.5;
#X obj 239 205 *~ 0.5;
#X obj 272 181 k_range -7 7 0.8 0.4;
#X obj 214 158 k_range -7 7 0.4 0.8;
#X obj 247 -110 r all;
#X obj 2 593 outlet~;
#X obj 175 591 outlet~;
#X obj 247 -83 route /click3;
#X obj 16 4 catch~ s3;
#X obj -258 200 hip~ 2;
#X obj -154 90 line~;
#X obj -274 34 *~ 0.4;
#X obj -383 39 *~ 0.3;
#X obj -154 70 pack f 60;
#X obj -228 245 moog~;
#X obj -155 -28 *;
#X obj -125 -29 *;
#X obj -154 -6 +;
#X obj -109 -69 * 1000;
#X obj -156 -68 * 1000;
#X obj -69 -41 t f f;
#X obj -70 -17 -;
#X obj -29 -15 -;
#X obj -29 -39 t f f;
#X obj -70 11 +;
#X obj -70 34 abs;
#X floatatom -70 58 5 0 0 0 - - -;
#X obj -154 21 sqrt;
#X obj -228 326 *~;
#X obj -153 232 line~;
#X obj -153 209 pack f 50;
#X obj -153 256 clip~ -1 1;
#X obj -201 212 sig~ 1;
#X obj -154 47 / 1.5;
#X obj -155 -106 t f f;
#X obj -110 -109 t f f;
#X obj -228 271 *~ 1;
#X obj 37 -38 expr if($f1<2 \, 1 \, ($f1-2)/5+1);
#X obj 2 438 st-bitcrusher /b3;
#X obj 2 515 st-pitchshifter /p1;
#X obj -383 14 _phasor~ 1001;
#X obj -336 72 _phasor~ 1205;
#X obj -243 69 _phasor~ 300;
#X obj -225 116 _phasor~ 50;
#X obj -274 10 _phasor~ 520;
#X obj -243 90 *~ 0.1;
#X obj -225 139 *~ 0.5;
#X obj -336 95 *~ 0.2;
#X floatatom 28 195 5 0 0 0 - - -;
#X msg 28 216 2 \$1;
#X obj 28 170 expr ($f1/0.6)/5+0.1;
#X obj 247 -59 perk-snare /cccc;
#X obj 16 264 spigot~;
#X obj 75 263 spigot~;
#X obj 133 226 tgl 15 0 empty empty empty 17 7 0 10 -262144 -1 -1 1
1;
#X obj 134 201 == 1;
#X obj 181 1 s a3-size;
#X obj 16 64 *~ 0.35;
#X obj -228 300 *~ 10;
#X obj 316 266 moses 4;
#X msg 352 288 4;
#X msg 316 359 0 \$1;
#X obj 316 317 f;
#X msg 365 385 3 \$1;
#X obj 365 358 k_range 0 4 0.3 0.5;
#X obj 316 337 k_range 0 4 0.6 0.5;
#X connect 0 0 66 0;
#X connect 1 0 8 0;
#X connect 2 0 5 1;
#X connect 3 0 6 1;
#X connect 4 0 2 0;
#X connect 4 1 3 0;
#X connect 5 0 61 0;
#X connect 6 0 62 0;
#X connect 7 0 47 2;
#X connect 8 0 4 0;
#X connect 8 1 12 0;
#X connect 8 1 11 0;
#X connect 8 1 43 0;
#X connect 8 2 44 0;
#X connect 8 3 7 0;
#X connect 8 3 59 0;
#X connect 8 3 64 0;
#X connect 8 4 46 0;
#X connect 8 4 65 0;
#X connect 8 4 68 0;
#X connect 9 0 61 0;
#X connect 10 0 62 0;
#X connect 11 0 10 1;
#X connect 12 0 9 1;
#X connect 13 0 16 0;
#X connect 16 0 60 0;
#X connect 17 0 0 0;
#X connect 18 0 23 0;
#X connect 19 0 23 1;
#X connect 20 0 18 0;
#X connect 21 0 18 0;
#X connect 22 0 19 0;
#X connect 23 0 45 0;
#X connect 24 0 26 0;
#X connect 25 0 26 1;
#X connect 26 0 36 0;
#X connect 27 0 25 0;
#X connect 27 0 25 1;
#X connect 28 0 24 0;
#X connect 28 0 24 1;
#X connect 29 0 30 1;
#X connect 29 1 30 0;
#X connect 30 0 33 0;
#X connect 31 0 33 1;
#X connect 32 0 31 1;
#X connect 32 1 31 0;
#X connect 33 0 34 0;
#X connect 34 0 35 0;
#X connect 35 0 39 0;
#X connect 36 0 42 0;
#X connect 37 0 5 0;
#X connect 37 0 6 0;
#X connect 38 0 40 0;
#X connect 39 0 38 0;
#X connect 40 0 37 1;
#X connect 41 0 23 2;
#X connect 42 0 22 0;
#X connect 43 0 28 0;
#X connect 43 1 29 0;
#X connect 44 0 27 0;
#X connect 44 1 32 0;
#X connect 45 0 67 0;
#X connect 46 0 0 1;
#X connect 46 0 45 1;
#X connect 47 0 48 0;
#X connect 47 1 48 1;
#X connect 48 0 14 0;
#X connect 48 1 15 0;
#X connect 49 0 21 0;
#X connect 50 0 56 0;
#X connect 51 0 54 0;
#X connect 52 0 55 0;
#X connect 53 0 20 0;
#X connect 54 0 18 0;
#X connect 55 0 18 0;
#X connect 56 0 18 0;
#X connect 57 0 58 0;
#X connect 58 0 47 2;
#X connect 59 0 57 0;
#X connect 60 0 9 0;
#X connect 60 0 10 0;
#X connect 61 0 47 0;
#X connect 61 1 48 0;
#X connect 62 0 47 1;
#X connect 62 1 48 1;
#X connect 63 0 62 1;
#X connect 63 0 61 1;
#X connect 64 0 63 0;
#X connect 66 0 5 0;
#X connect 66 0 6 0;
#X connect 67 0 37 0;
#X connect 68 0 71 0;
#X connect 68 1 69 0;
#X connect 69 0 71 0;
#X connect 70 0 48 2;
#X connect 71 0 73 0;
#X connect 71 0 74 0;
#X connect 72 0 48 2;
#X connect 73 0 72 0;
#X connect 74 0 70 0;
#X restore 190 -127 pd sound 3;
#N canvas 187 71 1202 724 deformed 0;
#X obj 94 156 ll;
#X obj 94 76 r all;
#X obj 94 99 route /go /go-pos;
#X floatatom -150 229 5 0 0 0 - - -;
#X floatatom -93 280 5 0 0 0 - - -;
#X floatatom -150 356 5 0 0 0 - - -;
#X obj -150 210 unpack f f f;
#X obj -93 303 abs;
#X obj -93 327 k_range 0 4 1 0;
#X obj -150 327 mtof;
#X msg -93 349 0 \$1;
#X obj 94 128 route 4 12 20 28 36 44;
#X obj 229 152 route 52 60 68 76 84 94;
#X obj 74 297 r all;
#X obj 74 335 route /click;
#X obj 74 361 unpack f f f;
#X floatatom 73 382 5 0 0 0 - - -;
#X floatatom 108 395 5 0 0 0 - - -;
#X msg 73 511 1;
#X msg 103 510 0;
#X obj 102 489 delay 200;
#X obj 73 545 s \$0-note-on-off;
#X obj -150 381 syn-bellsynth /m2;
#X obj 194 545 *~ 0;
#X obj 244 546 *~ 0;
#X obj 240 439 t f f;
#X obj 141 513 loadbang;
#X obj -150 256 k_range -10 10 0 36;
#X obj -84 545 throw~ ll;
#X obj -150 544 throw~ rr;
#X obj 229 177 rr;
#X obj -150 299 + 50;
#X obj 74 462 t b b b;
#X obj 276 320 expr abs($f1/4);
#X floatatom 276 341 5 0 0 0 - - -;
#X msg 276 363 0 \$1;
#X obj 194 456 *~ 2;
#X obj 194 391 perk-lowtom /m10;
#X obj 271 471 k_range -7 7 0 1;
#X obj 240 503 k_range -7 7 1 0;
#X obj 194 581 st-pitchshifter /m12;
#X obj 194 653 throw~ lll;
#X obj 367 654 throw~ rrr;
#X obj -150 492 *~ 0.15;
#X obj 251 209 rr;
#X obj 319 206 rr;
#X obj 281 216 rr;
#X obj 296 178 rr;
#X obj 347 216 rr;
#X obj 683 18 r all;
#X obj 683 118 line~;
#X obj 718 399 outlet~;
#X obj 656 399 outlet~;
#X obj 656 369 *~;
#X obj 718 375 *~;
#X obj 424 344 catch~ ll;
#X obj 468 375 catch~ rr;
#X obj 463 269 *~ 0.3;
#X obj 640 274 *~ 0.3;
#X msg 683 66 \$1 2000;
#X obj 683 41 route /go-vol /add-circle;
#X obj 654 300 catch~ lll;
#X obj 749 301 catch~ rrr;
#X obj 532 118 r all;
#X obj 532 141 route /go-len;
#X msg 533 164 \$1 1000;
#X obj 533 187 line;
#X obj 424 417 st-pureverb4 /m16;
#X obj 425 493 st-pureverb4 /m17;
#X obj 139 155 ll;
#X obj 184 181 ll;
#X obj 116 181 ll;
#X obj 161 202 ll;
#X obj 206 205 ll;
#X obj 533 233 + 0.2;
#X obj 533 210 * 0.1;
#X floatatom 787 96 5 0 0 0 - - -;
#X obj 787 118 t b;
#X obj 195 358 bng 15 250 50 0 empty empty empty 17 7 0 10 -262144
-1 -1;
#X obj 813 135 bng 15 250 50 0 empty empty empty 17 7 0 10 -262144
-1 -1;
#X obj 790 170 perk-lowtom /m20;
#X obj 656 342 *~ 0.2;
#X obj 718 354 *~ 0.2;
#X connect 1 0 2 0;
#X connect 2 0 11 0;
#X connect 2 1 6 0;
#X connect 3 0 27 0;
#X connect 4 0 7 0;
#X connect 6 0 3 0;
#X connect 6 1 4 0;
#X connect 7 0 8 0;
#X connect 8 0 10 0;
#X connect 9 0 5 0;
#X connect 11 0 0 0;
#X connect 11 1 71 0;
#X connect 11 2 69 0;
#X connect 11 3 72 0;
#X connect 11 4 70 0;
#X connect 11 5 73 0;
#X connect 11 6 12 0;
#X connect 12 0 30 0;
#X connect 12 1 44 0;
#X connect 12 2 46 0;
#X connect 12 3 47 0;
#X connect 12 4 45 0;
#X connect 12 5 48 0;
#X connect 13 0 14 0;
#X connect 14 0 15 0;
#X connect 15 0 16 0;
#X connect 15 1 17 0;
#X connect 16 0 32 0;
#X connect 17 0 25 0;
#X connect 18 0 21 0;
#X connect 19 0 21 0;
#X connect 20 0 19 0;
#X connect 23 0 40 0;
#X connect 24 0 40 1;
#X connect 25 0 39 0;
#X connect 25 1 38 0;
#X connect 26 0 19 0;
#X connect 27 0 31 0;
#X connect 31 0 9 0;
#X connect 32 0 18 0;
#X connect 32 1 20 0;
#X connect 32 2 37 0;
#X connect 33 0 34 0;
#X connect 34 0 35 0;
#X connect 35 0 37 1;
#X connect 36 0 23 0;
#X connect 36 0 24 0;
#X connect 37 0 36 0;
#X connect 38 0 24 1;
#X connect 39 0 23 1;
#X connect 40 0 41 0;
#X connect 40 1 42 0;
#X connect 43 0 28 0;
#X connect 43 0 29 0;
#X connect 49 0 60 0;
#X connect 50 0 53 1;
#X connect 50 0 54 1;
#X connect 53 0 52 0;
#X connect 54 0 51 0;
#X connect 55 0 57 0;
#X connect 55 0 67 0;
#X connect 56 0 58 0;
#X connect 56 0 67 1;
#X connect 57 0 81 0;
#X connect 58 0 82 0;
#X connect 59 0 50 0;
#X connect 60 0 59 0;
#X connect 60 1 76 0;
#X connect 61 0 81 0;
#X connect 62 0 82 0;
#X connect 63 0 64 0;
#X connect 64 0 65 0;
#X connect 65 0 66 0;
#X connect 66 0 75 0;
#X connect 67 0 68 0;
#X connect 67 1 68 1;
#X connect 68 0 57 0;
#X connect 68 1 58 0;
#X connect 74 0 57 1;
#X connect 74 0 58 1;
#X connect 75 0 74 0;
#X connect 76 0 77 0;
#X connect 77 0 80 0;
#X connect 78 0 37 0;
#X connect 79 0 80 0;
#X connect 80 0 52 0;
#X connect 80 0 51 0;
#X connect 81 0 53 0;
#X connect 82 0 54 0;
#X restore -94 -58 pd deformed;
#X obj 153 189 hsl 170 15 0 1 0 0 empty empty vol=1 5 8 0 10 -228856
-1 -1 16900 1;
#X obj -90 56 t f f;
#X obj -90 82 expr int($f1*100)/100;
#X obj -38 150 sig~ 1;
#X msg -90 8 \$1 200;
#X obj -90 33 line;
#X msg -90 108 label vol=\$1;
#N canvas 269 229 781 370 space 0;
#X obj 83 51 ss_circle 0;
#X obj 84 72 ss_circle 1;
#X obj 82 95 ss_circle 2;
#X obj 83 118 ss_circle 3;
#X obj 83 139 ss_circle 4;
#X obj 84 160 ss_circle 5;
#X obj 82 183 ss_circle 6;
#X obj 83 204 ss_circle 7;
#X obj 82 225 ss_circle 8;
#X obj 83 246 ss_circle 9;
#X obj 173 54 ss_circle 10;
#X obj 174 75 ss_circle 11;
#X obj 172 98 ss_circle 12;
#X obj 173 121 ss_circle 13;
#X obj 173 142 ss_circle 14;
#X obj 174 163 ss_circle 15;
#X obj 172 186 ss_circle 16;
#X obj 173 207 ss_circle 17;
#X obj 172 228 ss_circle 18;
#X obj 173 249 ss_circle 19;
#X obj 261 53 ss_circle 20;
#X obj 262 74 ss_circle 21;
#X obj 260 97 ss_circle 22;
#X obj 261 120 ss_circle 23;
#X obj 261 141 ss_circle 24;
#X obj 262 162 ss_circle 25;
#X obj 260 185 ss_circle 26;
#X obj 261 206 ss_circle 27;
#X obj 260 227 ss_circle 28;
#X obj 261 248 ss_circle 29;
#X obj 348 54 ss_circle 30;
#X obj 349 75 ss_circle 31;
#X obj 347 98 ss_circle 32;
#X obj 348 121 ss_circle 33;
#X obj 348 142 ss_circle 34;
#X obj 349 163 ss_circle 35;
#X obj 347 186 ss_circle 36;
#X obj 348 207 ss_circle 37;
#X obj 347 228 ss_circle 38;
#X obj 349 249 ss_circle 39;
#X obj 438 57 ss_circle 40;
#X obj 439 78 ss_circle 41;
#X obj 437 101 ss_circle 42;
#X obj 438 124 ss_circle 43;
#X obj 438 145 ss_circle 44;
#X obj 439 167 ss_circle 45;
#X obj 437 189 ss_circle 46;
#X obj 437 231 ss_circle 48;
#X obj 437 210 ss_circle 47;
#X obj 438 252 ss_circle 49;
#X obj 526 56 ss_circle 50;
#X obj 527 77 ss_circle 51;
#X obj 525 100 ss_circle 52;
#X obj 526 123 ss_circle 53;
#X obj 526 144 ss_circle 54;
#X obj 527 165 ss_circle 5;
#X obj 525 188 ss_circle 56;
#X obj 526 209 ss_circle 57;
#X obj 525 230 ss_circle 58;
#X obj 526 251 ss_circle 59;
#X restore 357 164 pd space;
#X obj 20 -46 catch~ circleL;
#X obj 181 -33 catch~ circleR;
#X obj 100 -161 route /env1 /env2 /env3 /bg;
#X obj 401 -249 declare -path abs;
#X obj 146 119 st-EQ3 /eee1;
#X obj 103 236 k_vol;
#X obj 227 236 k_vol;
#X obj -154 273 writesf~ 2;
#X msg -131 249 stop;
#X msg -154 231 open main.wav \, start;
#X obj -14 259 *~;
#X obj -56 260 *~;
#X obj 106 159 tgl 30 0 empty empty empty 17 7 0 10 -262144 -1 -1 1
1;
#X obj -173 203 sel 0 1;
#X obj 107 211 hsl 50 15 -1 1 0 0 empty empty empty -2 -8 0 10 -262144
-1 -1 2452 1;
#X obj 232 211 hsl 50 15 -1 1 0 0 empty empty empty -2 -8 0 10 -262144
-1 -1 2452 1;
#X obj 211 211 bng 15 250 50 0 empty empty empty 17 7 0 10 -262144
-1 -1;
#X msg 360 210 0.001;
#X obj -56 286 +~;
#X obj -14 286 +~;
#X msg -97 179 \$1 500;
#X obj -97 201 line~;
#X obj 358 185 loadbang;
#X msg 12 173 \$1 500;
#X obj 13 196 line~;
#X floatatom 163 211 5 0 0 0 - - -;
#X floatatom 289 210 5 0 0 0 - - -;
#N canvas 206 144 1053 525 effect 0;
#X obj 113 46 inlet~;
#X obj 178 45 inlet~;
#X obj 109 134 *~;
#X obj 164 136 *~;
#X obj 137 431 outlet~;
#X obj 219 437 outlet~;
#X obj 207 224 *~;
#X obj 262 226 *~;
#X obj 780 -51 r all;
#X floatatom 780 0 5 0 0 0 - - -;
#X obj 780 -26 route /effect;
#X obj 297 41 line~;
#X obj 812 218 line~;
#X obj 780 22 sel 0 1 2 3 4;
#X msg 781 50 1 0 0 0 0;
#X msg 797 72 0 1 0 0 0;
#X msg 815 96 0 0 1 0 0;
#X msg 831 118 0 0 0 1 0;
#X msg 862 139 0 0 0 0 1;
#X obj 766 166 unpack f f f f f;
#X obj 355 -56 r a1-size;
#X obj 355 -27 k_event 1 4;
#X floatatom 355 -4 5 0 0 0 - - -;
#X msg 355 41 0 \$1;
#X obj 202 144 st-vibrato /eft1;
#X obj 465 -30 k_event 1 4;
#X floatatom 465 -7 5 0 0 0 - - -;
#X obj 573 -28 k_event 1 4;
#X floatatom 573 -5 5 0 0 0 - - -;
#X msg 464 37 1 \$1;
#X msg 573 40 2 \$1;
#X obj 465 -59 r a2-size;
#X obj 573 -57 r a3-size;
#X obj 775 278 line~;
#X obj 400 122 st-EQ3 /eft2;
#X obj 931 247 line~;
#X obj 386 220 *~;
#X obj 441 222 *~;
#X obj 405 379 *~;
#X obj 460 381 *~;
#X obj 196 300 st-compressor /eft4;
#X obj 397 284 st-bitcrusher /eft3;
#X msg 479 259 0 \$1;
#X msg 524 256 1 \$1;
#X obj 608 410 *~;
#X obj 663 412 *~;
#X obj 606 309 st-flanger /eft5;
#X obj 863 268 line~;
#X obj 573 19 k_range 1 4 0.1 0.9;
#X obj 464 17 k_range 1 4 0.1 0.9;
#X obj 355 20 k_range 1 4 0.1 0.9;
#X obj 888 -49 loadbang;
#X msg 887 -25 0;
#X obj 544 204 k_range 1 4 1 0.65;
#X obj 663 201 k_range 1 4 1 0.2;
#X msg 296 17 \$1 8000;
#X msg 775 251 \$1 8000;
#X msg 812 191 \$1 8000;
#X msg 863 241 \$1 8000;
#X msg 931 220 \$1 8000;
#X connect 0 0 2 0;
#X connect 0 0 24 0;
#X connect 0 0 34 0;
#X connect 0 0 41 0;
#X connect 0 0 46 0;
#X connect 1 0 3 0;
#X connect 1 0 24 1;
#X connect 1 0 34 1;
#X connect 1 0 41 1;
#X connect 1 0 46 1;
#X connect 2 0 4 0;
#X connect 3 0 5 0;
#X connect 6 0 40 0;
#X connect 7 0 40 1;
#X connect 8 0 10 0;
#X connect 9 0 13 0;
#X connect 10 0 9 0;
#X connect 11 0 2 1;
#X connect 11 0 3 1;
#X connect 12 0 6 1;
#X connect 12 0 7 1;
#X connect 13 0 14 0;
#X connect 13 1 15 0;
#X connect 13 2 16 0;
#X connect 13 3 17 0;
#X connect 13 4 18 0;
#X connect 14 0 19 0;
#X connect 15 0 19 0;
#X connect 16 0 19 0;
#X connect 17 0 19 0;
#X connect 18 0 19 0;
#X connect 19 0 55 0;
#X connect 19 1 56 0;
#X connect 19 2 57 0;
#X connect 19 3 58 0;
#X connect 19 4 59 0;
#X connect 20 0 21 0;
#X connect 21 0 22 0;
#X connect 22 0 50 0;
#X connect 22 0 53 0;
#X connect 23 0 24 2;
#X connect 23 0 34 2;
#X connect 23 0 46 2;
#X connect 24 0 6 0;
#X connect 24 1 7 0;
#X connect 25 0 26 0;
#X connect 26 0 49 0;
#X connect 26 0 54 0;
#X connect 27 0 28 0;
#X connect 28 0 48 0;
#X connect 29 0 24 2;
#X connect 29 0 34 2;
#X connect 29 0 46 2;
#X connect 30 0 24 2;
#X connect 30 0 34 2;
#X connect 30 0 46 2;
#X connect 31 0 25 0;
#X connect 32 0 27 0;
#X connect 33 0 36 1;
#X connect 33 0 37 1;
#X connect 34 0 36 0;
#X connect 34 1 37 0;
#X connect 35 0 39 1;
#X connect 35 0 38 1;
#X connect 36 0 40 0;
#X connect 37 0 40 1;
#X connect 38 0 40 0;
#X connect 39 0 40 1;
#X connect 40 0 4 0;
#X connect 40 1 5 0;
#X connect 41 0 38 0;
#X connect 41 1 39 0;
#X connect 42 0 41 2;
#X connect 43 0 41 2;
#X connect 44 0 4 0;
#X connect 45 0 5 0;
#X connect 46 0 44 0;
#X connect 46 1 45 0;
#X connect 47 0 44 1;
#X connect 47 0 45 1;
#X connect 48 0 30 0;
#X connect 49 0 29 0;
#X connect 50 0 23 0;
#X connect 51 0 52 0;
#X connect 52 0 9 0;
#X connect 53 0 42 0;
#X connect 54 0 43 0;
#X connect 55 0 11 0;
#X connect 56 0 33 0;
#X connect 57 0 12 0;
#X connect 58 0 47 0;
#X connect 59 0 35 0;
#X restore 101 87 pd effect 4;
#X obj 20 -23 *~ 0.5;
#X obj 181 -11 *~ 0.5;
#X text 7 -175 boids;
#N canvas 490 209 531 576 mouse-radius 0;
#X obj 108 -40 route /release /radius;
#X floatatom 108 7 5 0 0 0 - - -;
#X floatatom 150 -11 5 0 0 0 - - -;
#X obj 110 -69 r all;
#X obj 106 43 spigot;
#X obj 109 95 mtof;
#X msg 108 126 \$1 100;
#X obj 108 161 line;
#X obj 111 395 outlet~;
#X obj 111 349 *~ 0;
#X obj 251 60 sel 1 0;
#X floatatom 132 326 5 0 0 0 - - -;
#X obj 243 36 tgl 15 0 empty empty empty 17 7 0 10 -262144 -1 -1 0
1;
#X obj 251 122 line;
#X obj 319 112 line;
#X obj 251 145 incirc;
#X obj 88 187 syn-stringsynth /key;
#X obj 244 8 change;
#X obj 319 136 inoutbounce;
#X msg 319 75 1 \, 0 1500;
#X msg 251 95 0 \, 1 600;
#X obj 111 370 *~ 0.3;
#X floatatom 154 98 5 0 0 0 - - -;
#X obj 109 67 expr int($f1+1)*8;
#X connect 0 0 1 0;
#X connect 0 1 2 0;
#X connect 1 0 4 1;
#X connect 1 0 17 0;
#X connect 2 0 4 0;
#X connect 3 0 0 0;
#X connect 4 0 23 0;
#X connect 5 0 6 0;
#X connect 6 0 7 0;
#X connect 7 0 16 0;
#X connect 9 0 21 0;
#X connect 10 0 20 0;
#X connect 10 1 19 0;
#X connect 11 0 9 1;
#X connect 12 0 10 0;
#X connect 13 0 15 0;
#X connect 14 0 18 0;
#X connect 15 0 11 0;
#X connect 16 0 9 0;
#X connect 17 0 12 0;
#X connect 18 0 11 0;
#X connect 19 0 14 0;
#X connect 20 0 13 0;
#X connect 21 0 8 0;
#X connect 23 0 5 0;
#X connect 23 0 22 0;
#X restore -114 -164 pd mouse-radius;
#X obj 161 -228 diy2;
#X obj 11 -129 *~ 0.9;
#X obj 300 -111 ss 1;
#X obj 301 -89 ss 2;
#X obj 301 -67 ss 3;
#X obj 302 -45 ss 4;
#X obj 301 -21 ss 5;
#X obj 301 1 ss 6;
#X obj 302 23 ss 7;
#X obj 302 45 ss 8;
#X obj 303 67 ss 9;
#X obj 336 -133 ss 10;
#X obj 336 -111 ss 11;
#X obj 337 -89 ss 12;
#X obj 337 -67 ss 13;
#X obj 338 -45 ss 14;
#X obj 337 -21 ss 15;
#X obj 337 1 ss 16;
#X obj 338 23 ss 17;
#X obj 338 45 ss 18;
#X obj 339 67 ss 19;
#X obj 380 -134 ss 20;
#X obj 380 -112 ss 21;
#X obj 381 -90 ss 22;
#X obj 381 -69 ss 23;
#X obj 382 -46 ss 24;
#X obj 381 -22 ss 25;
#X obj 381 0 ss 26;
#X obj 382 22 ss 27;
#X obj 383 44 ss 28;
#X obj 383 66 ss 29;
#X obj 424 -133 ss 30;
#X obj 424 -111 ss 31;
#X obj 425 -89 ss 32;
#X obj 425 -67 ss 33;
#X obj 426 -45 ss 34;
#X obj 425 -21 ss 35;
#X obj 425 1 ss 36;
#X obj 426 23 ss 37;
#X obj 426 45 ss 38;
#X obj 427 67 ss 39;
#X floatatom 426 124 5 0 0 0 - - -;
#X floatatom 487 125 5 0 0 0 - - -;
#X floatatom 420 290 5 0 0 0 - - -;
#X floatatom 492 276 5 0 0 0 - - -;
#X obj 425 146 / 127;
#X obj 487 147 / 127;
#X msg 481 219 1 \$1;
#X obj 420 309 / 127;
#X obj 492 301 / 127;
#X msg 420 377 2 \$1;
#X msg 491 372 3 \$1;
#X msg 423 225 0 \$1;
#X obj 424 197 line;
#X msg 425 173 \$1 200;
#X obj 481 196 line;
#X msg 482 172 \$1 200;
#X obj 419 355 line;
#X msg 420 331 \$1 200;
#X obj 491 349 line;
#X msg 492 325 \$1 200;
#X msg 594 259 \$1 500;
#X obj 594 283 line;
#X floatatom 594 234 5 0 0 0 - - -;
#X obj 105 118 tgl 30 0 empty empty empty 17 7 0 10 -262144 -1 -1 1
1;
#X obj 6 335 sel 0 1;
#X msg 6 358 disconnect;
#X msg 25 387 connect localhost 9998;
#X obj 25 411 udpsend;
#X obj -38 422 spigot;
#X obj 25 434 tgl 15 0 empty empty empty 17 7 0 10 -262144 -1 -1 0
1;
#X obj -149 327 env~;
#X obj -112 327 env~;
#X floatatom -149 351 5 0 0 0 - - -;
#X floatatom -109 352 5 0 0 0 - - -;
#X obj -149 380 pack f f;
#X msg -149 405 send /vol \$1 \$2;
#X obj -149 428 packOSC;
#X obj 490 20 r all;
#X obj 490 48 route /ctl16 /ctl17 /ctl18 /ctl19;
#X connect 1 0 28 0;
#X connect 4 0 5 0;
#X connect 5 0 6 0;
#X connect 7 0 8 0;
#X connect 9 0 59 0;
#X connect 10 0 53 0;
#X connect 10 1 53 1;
#X connect 11 0 12 0;
#X connect 13 0 11 0;
#X connect 14 0 10 0;
#X connect 14 1 10 1;
#X connect 15 0 10 0;
#X connect 15 1 10 1;
#X connect 16 0 10 0;
#X connect 16 1 10 1;
#X connect 17 0 10 0;
#X connect 17 1 10 1;
#X connect 18 0 22 0;
#X connect 19 0 20 0;
#X connect 19 1 21 0;
#X connect 20 0 24 0;
#X connect 21 0 37 1;
#X connect 21 0 36 1;
#X connect 22 0 23 0;
#X connect 23 0 19 0;
#X connect 24 0 18 0;
#X connect 26 0 54 0;
#X connect 27 0 55 0;
#X connect 28 0 14 0;
#X connect 28 1 15 0;
#X connect 28 2 16 0;
#X connect 28 3 121 0;
#X connect 30 0 37 0;
#X connect 30 1 36 0;
#X connect 34 0 33 0;
#X connect 35 0 33 0;
#X connect 36 0 45 0;
#X connect 37 0 44 0;
#X connect 38 0 39 0;
#X connect 39 0 34 0;
#X connect 39 1 35 0;
#X connect 40 0 51 0;
#X connect 41 0 52 0;
#X connect 42 0 43 0;
#X connect 43 0 41 0;
#X connect 43 0 40 0;
#X connect 44 0 0 0;
#X connect 44 0 31 0;
#X connect 44 0 129 0;
#X connect 44 0 33 0;
#X connect 45 0 0 1;
#X connect 45 0 32 0;
#X connect 45 0 130 0;
#X connect 45 0 33 1;
#X connect 46 0 47 0;
#X connect 47 0 44 1;
#X connect 48 0 42 0;
#X connect 49 0 50 0;
#X connect 50 0 45 1;
#X connect 51 0 46 0;
#X connect 52 0 49 0;
#X connect 53 0 30 0;
#X connect 53 1 30 1;
#X connect 54 0 10 0;
#X connect 55 0 10 1;
#X connect 57 0 10 0;
#X connect 57 0 10 1;
#X connect 59 0 10 0;
#X connect 59 0 10 1;
#X connect 99 0 103 0;
#X connect 100 0 104 0;
#X connect 101 0 106 0;
#X connect 102 0 107 0;
#X connect 103 0 112 0;
#X connect 104 0 114 0;
#X connect 105 0 30 2;
#X connect 106 0 116 0;
#X connect 107 0 118 0;
#X connect 108 0 30 2;
#X connect 109 0 30 2;
#X connect 110 0 30 2;
#X connect 111 0 110 0;
#X connect 112 0 111 0;
#X connect 113 0 105 0;
#X connect 114 0 113 0;
#X connect 115 0 108 0;
#X connect 116 0 115 0;
#X connect 117 0 109 0;
#X connect 118 0 117 0;
#X connect 119 0 120 0;
#X connect 120 0 18 0;
#X connect 121 0 119 0;
#X connect 122 0 123 0;
#X connect 123 0 124 0;
#X connect 123 1 125 0;
#X connect 124 0 126 0;
#X connect 125 0 126 0;
#X connect 126 0 128 0;
#X connect 127 0 126 0;
#X connect 128 0 127 1;
#X connect 129 0 131 0;
#X connect 130 0 132 0;
#X connect 131 0 133 0;
#X connect 132 0 133 1;
#X connect 133 0 134 0;
#X connect 134 0 135 0;
#X connect 135 0 127 0;
#X connect 136 0 137 0;
#X connect 137 0 99 0;
#X connect 137 1 100 0;
#X connect 137 2 101 0;
#X connect 137 3 102 0;
#X coords 0 -1 1 1 250 230 1 100 100;
#X restore 33 16 pd s-main;
