#N canvas 314 173 450 300 12;
#X obj 37 78 gemhead;
#X obj 36 158 rotateXYZ;
#X obj 37 104 t a b;
#N canvas 401 146 1039 597 circle 0;
#X obj -377 67 GEMglEnd;
#X obj -326 36 GEMglBegin;
#X obj -377 36 t a a a;
#X obj -358 402 GEMglVertex3f 0 0 0;
#X obj -358 125 t a b;
#X obj -331 148 f;
#X obj -300 148 + 1;
#X obj -286 246 expr $f1*2 *3.1415926;
#X msg -269 13 9;
#X obj -286 336 expr cos($f1)*$f2+$f3;
#X obj -253 359 expr sin($f1)*$f2+$f3;
#X obj -286 270 t f f b b b;
#X obj -163 312 v x_\$0;
#X obj -130 335 v y_\$0;
#X obj -267 -18 loadbang;
#X obj -226 310 f 2.5;
#X obj -329 171 t f f;
#X obj -121 254 + 2.5;
#X obj -121 206 tabread \$0-sound;
#X msg -121 154 0;
#X obj -121 229 * 0.5;
#X obj -358 100 repeat 200;
#X obj -270 147 % 200;
#X obj -286 220 expr $f1/200;
#X obj -121 128 sel 0 199;
#X obj -121 102 t f f;
#X obj -29 112 expr if($f1>100 \, 200-$f1 \, $f1);
#X obj -29 144 expr pow(($f1/100) \, 1);
#X obj -392 -19 colorRGB 1 0 0 0.9;
#X obj -429 -46 t a a;
#X obj -868 95 GEMglEnd;
#X obj -817 64 GEMglBegin;
#X obj -868 64 t a a a;
#X obj -849 430 GEMglVertex3f 0 0 0;
#X obj -849 153 t a b;
#X obj -822 176 f;
#X obj -791 176 + 1;
#X obj -777 274 expr $f1*2 *3.1415926;
#X obj -777 364 expr cos($f1)*$f2+$f3;
#X obj -744 387 expr sin($f1)*$f2+$f3;
#X obj -777 298 t f f b b b;
#X obj -654 340 v x_\$0;
#X obj -621 363 v y_\$0;
#X obj -760 18 loadbang;
#X obj -717 338 f 2.5;
#X obj -820 199 t f f;
#X obj -612 282 + 2.5;
#X obj -612 234 tabread \$0-sound;
#X msg -612 182 0;
#X obj -612 257 * 0.5;
#X obj -849 128 repeat 200;
#X obj -761 175 % 200;
#X obj -777 248 expr $f1/200;
#X obj -612 156 sel 0 199;
#X obj -612 130 t f f;
#X obj -546 157 expr if($f1>100 \, 200-$f1 \, $f1);
#X obj -546 189 expr pow(($f1/100) \, 1);
#X obj -868 7 colorRGB 1 1 1;
#X obj -868 32 GEMglLineWidth 2;
#X obj -121 178 * 4;
#X obj -612 206 * 4;
#X obj -383 12 alpha 1;
#X obj -428 -75 inlet;
#X msg -760 41 0;
#X connect 2 0 0 0;
#X connect 2 1 21 0;
#X connect 2 2 1 0;
#X connect 4 0 3 0;
#X connect 4 1 5 0;
#X connect 5 0 6 0;
#X connect 5 0 16 0;
#X connect 6 0 22 0;
#X connect 7 0 11 0;
#X connect 8 0 1 1;
#X connect 9 0 3 1;
#X connect 10 0 3 2;
#X connect 11 0 9 0;
#X connect 11 1 10 0;
#X connect 11 2 12 0;
#X connect 11 3 13 0;
#X connect 11 4 15 0;
#X connect 12 0 9 2;
#X connect 13 0 10 2;
#X connect 14 0 8 0;
#X connect 15 0 10 1;
#X connect 15 0 9 1;
#X connect 16 0 23 0;
#X connect 16 1 25 0;
#X connect 17 0 15 1;
#X connect 18 0 20 0;
#X connect 19 0 59 0;
#X connect 20 0 17 0;
#X connect 21 0 4 0;
#X connect 22 0 5 1;
#X connect 23 0 7 0;
#X connect 24 0 19 0;
#X connect 24 1 19 0;
#X connect 24 2 59 0;
#X connect 25 0 24 0;
#X connect 25 1 26 0;
#X connect 26 0 27 0;
#X connect 27 0 20 1;
#X connect 28 0 61 0;
#X connect 29 0 57 0;
#X connect 29 1 28 0;
#X connect 32 0 30 0;
#X connect 32 1 50 0;
#X connect 32 2 31 0;
#X connect 34 0 33 0;
#X connect 34 1 35 0;
#X connect 35 0 36 0;
#X connect 35 0 45 0;
#X connect 36 0 51 0;
#X connect 37 0 40 0;
#X connect 38 0 33 1;
#X connect 39 0 33 2;
#X connect 40 0 38 0;
#X connect 40 1 39 0;
#X connect 40 2 41 0;
#X connect 40 3 42 0;
#X connect 40 4 44 0;
#X connect 41 0 38 2;
#X connect 42 0 39 2;
#X connect 43 0 63 0;
#X connect 44 0 39 1;
#X connect 44 0 38 1;
#X connect 45 0 52 0;
#X connect 45 1 54 0;
#X connect 46 0 44 1;
#X connect 47 0 49 0;
#X connect 48 0 60 0;
#X connect 49 0 46 0;
#X connect 50 0 34 0;
#X connect 51 0 35 1;
#X connect 52 0 37 0;
#X connect 53 0 48 0;
#X connect 53 1 48 0;
#X connect 53 2 60 0;
#X connect 54 0 53 0;
#X connect 54 1 55 0;
#X connect 55 0 56 0;
#X connect 56 0 49 1;
#X connect 57 0 58 0;
#X connect 58 0 32 0;
#X connect 59 0 18 0;
#X connect 60 0 47 0;
#X connect 61 0 2 0;
#X connect 62 0 29 0;
#X connect 63 0 31 1;
#X restore 36 181 pd circle;
#X obj 86 131 k_count 4 360;
#X obj 243 165 tabwrite~ \$0-sound;
#X obj 243 106 gemhead;
#X obj 243 130 t b;
#X obj 243 189 table \$0-sound 800;
#X obj 361 82 inlet~;
#X connect 0 0 2 0;
#X connect 1 0 3 0;
#X connect 2 0 1 0;
#X connect 2 1 4 0;
#X connect 4 0 1 3;
#X connect 6 0 7 0;
#X connect 7 0 5 0;
#X connect 9 0 5 0;
